<svg class="toyplot-canvas-Canvas" height="300.0px" id="te2e5628b5115479e8529b36be48af6eb" preserveAspectRatio="xMidYMid meet" style="background-color:transparent;border-color:#292724;border-style:none;border-width:1.0;fill:rgb(16.1%,15.3%,14.1%);fill-opacity:1.0;font-family:Helvetica;font-size:12px;opacity:1.0;stroke:rgb(16.1%,15.3%,14.1%);stroke-opacity:1.0;stroke-width:1.0" viewBox="0 0 600.0 300.0" width="600.0px" xmlns="http://www.w3.org/2000/svg" xmlns:toyplot="http://www.sandia.gov/toyplot" xmlns:xlink="http://www.w3.org/1999/xlink"><g class="toyplot-coordinates-Cartesian" id="t943e109e00b54922abecdffb7c4711a1"><clipPath id="te3b39bb377434e58beed7bb6eded7f5c"><rect height="220.0" width="520.0" x="40.0" y="40.0" /></clipPath><g clip-path="url(#te3b39bb377434e58beed7bb6eded7f5c)"><g class="toyplot-mark-Plot" id="ta147367f933a483eb48054a029de9020" style="fill:none;opacity:0.75"><g class="toyplot-Series"><path d="M 57.916666666666664 154.06106991472848 L 58.33333333333333 158.98359093481048 L 58.75 164.20749079285665 L 59.16666666666667 170.33552716479545 L 59.58333333333333 175.35850779753213 L 60.0 180.08010959230472 L 60.41666666666666 185.20354983769613 L 60.83333333333333 185.3040094503509 L 61.25 186.40906518955296 L 61.66666666666667 184.39987293645828 L 62.08333333333333 189.52331318184977 L 62.5 189.52331318184977 L 62.916666666666664 189.824692019814 L 63.33333333333334 191.0302073716708 L 63.75 191.13066698432553 L 64.16666666666667 191.63296504759919 L 64.58333333333333 192.7380207868013 L 65.0 187.81549976671926 L 65.41666666666666 188.51871705530243 L 65.83333333333334 185.40446906300565 L 66.25 182.18976145805414 L 66.66666666666667 178.07091733921004 L 67.08333333333333 176.56402314938902 L 67.5 171.64150212930699 L 67.91666666666666 170.53644639010494 L 68.33333333333334 169.43139065090284 L 68.75 169.93368871417653 L 69.16666666666667 171.13920406603333 L 69.58333333333333 173.14839631912804 L 70.0 174.95666934691326 L 70.41666666666667 174.5548308962943 L 70.83333333333334 171.54104251665228 L 71.25 167.52265801046292 L 71.66666666666667 164.30795040551138 L 72.08333333333333 163.705192729583 L 72.5 157.27577751967996 L 72.91666666666667 158.58175248419153 L 73.33333333333334 167.12081955984394 L 73.75 164.30795040551138 L 74.16666666666667 166.61852149657028 L 74.58333333333333 169.83322910152177 L 75.0 171.13920406603333 L 75.41666666666667 169.43139065090284 L 75.83333333333334 173.44977515709223 L 76.25 174.25345205833008 L 76.66666666666667 174.5548308962943 L 77.08333333333333 175.55942702284165 L 77.5 175.65988663549638 L 77.91666666666667 174.85620973425847 L 78.33333333333334 169.43139065090284 L 78.75 163.40381389161877 L 79.16666666666667 160.39002551197672 L 79.58333333333333 157.37623713233467 L 80.0 155.76888332985894 L 80.41666666666667 156.873939069061 L 80.83333333333333 162.90151582834508 L 81.25 165.11162730674926 L 81.66666666666667 162.80105621569038 L 82.08333333333333 168.92909258762916 L 82.5 168.62771374966496 L 82.91666666666666 168.12541568639128 L 83.33333333333333 170.23506755214072 L 83.75 170.68327197783105 L 84.16666666666666 168.1717816614627 L 84.58333333333333 165.45937211978486 L 85.0 163.8520183173091 L 85.41666666666667 160.83822993766708 L 85.83333333333334 159.1304165225366 L 86.25 157.52306272006084 L 86.66666666666666 159.8336338111197 L 87.08333333333334 166.06212979571328 L 87.5 173.8979795827826 L 87.91666666666667 181.93474859516135 L 88.33333333333333 186.95772922789808 L 88.75 187.46002729117177 L 89.16666666666666 188.7660022556833 L 89.58333333333334 190.07197722019487 L 90.0 191.57887141001586 L 90.41666666666666 190.47381567081382 L 90.83333333333333 191.37795218470643 L 91.25 190.97611373408748 L 91.66666666666666 190.77519450877801 L 92.08333333333333 191.0302073716708 L 92.5 193.74261691334863 L 92.91666666666666 195.85226877909804 L 93.33333333333334 198.26329948281168 L 93.75 200.87524941183477 L 94.16666666666666 193.4412380753844 L 94.58333333333334 195.45043032847911 L 95.0 199.66973405997797 L 95.41666666666667 200.87524941183477 L 95.83333333333333 200.57387057387058 L 96.25 200.07157251059692 L 96.66666666666666 200.3884066735849 L 97.08333333333334 201.8025689132631 L 97.5 201.40845812515607 L 97.91666666666667 198.98197209641864 L 98.33333333333333 200.18748744827545 L 98.75 202.29713931402483 L 99.16666666666666 203.70357389119113 L 99.58333333333334 203.90449311650065 L 100.0 204.80862963039323 L 100.41666666666666 207.11920072145213 L 100.83333333333334 204.909089243048 L 101.25 200.79024512420386 L 101.66666666666667 198.98197209641864 L 102.08333333333334 194.76266836491976 L 102.5 199.58472977234703 L 102.91666666666667 198.8815124837639 L 103.33333333333334 198.68059325845442 L 103.75 199.4842701596923 L 104.16666666666666 200.28794706093018 L 104.58333333333334 198.98197209641864 L 105.0 197.25870335626433 L 105.41666666666667 195.54316227862194 L 105.83333333333333 194.93267694018164 L 106.25 196.95732451830017 L 106.66666666666666 195.45043032847911 L 107.08333333333334 195.45043032847911 L 107.5 194.6467534272412 L 107.91666666666666 196.05318800440753 L 108.33333333333334 192.13526311087287 L 108.75 189.12147473123082 L 109.16666666666666 190.02561124512346 L 109.58333333333334 187.51412092875503 L 110.0 187.61458054140982 L 110.41666666666666 190.92974775901604 L 110.83333333333334 193.24031885007497 L 111.25 192.83848039945602 L 111.66666666666666 191.9343438855634 L 112.08333333333331 190.32699008308762 L 112.5 186.40906518955302 L 112.91666666666666 183.69665564787516 L 113.33333333333334 181.98884223274467 L 113.75 181.8883826200899 L 114.16666666666666 182.49114029601833 L 114.58333333333334 180.38148843026892 L 115.0 180.28102881761419 L 115.41666666666666 171.9428809672712 L 115.83333333333333 172.94747709381855 L 116.25 172.04334057992594 L 116.66666666666666 173.9520732203659 L 117.08333333333331 174.8562097342585 L 117.5 173.75115399505643 L 117.91666666666666 182.18976145805414 L 118.33333333333331 184.902170999732 L 118.75 186.3086055768983 L 119.16666666666666 188.4182574426477 L 119.58333333333331 189.3223939565403 L 120.00000000000001 189.42285356919504 L 120.41666666666667 190.72882853370658 L 120.83333333333334 193.54169768803916 L 121.25 196.95732451830014 L 121.66666666666669 199.7701936726327 L 122.08333333333334 199.7701936726327 L 122.5 199.46881483466848 L 122.91666666666667 200.3729513485611 L 123.33333333333334 200.3729513485611 L 123.75 205.79777043191677 L 124.16666666666669 202.08076476369158 L 124.58333333333334 196.35456684237172 L 125.0 194.24491497662228 L 125.41666666666667 187.41366131610033 L 125.83333333333334 188.31779782999294 L 126.25 186.30860557689823 L 126.66666666666666 182.99343835929204 L 127.08333333333334 178.97505385310262 L 127.5 172.4451790305449 L 127.91666666666666 165.91530420798713 L 128.33333333333334 159.0840505474652 L 128.75 152.4537161122527 L 129.16666666666666 145.2206240011118 L 129.58333333333334 136.88247615076884 L 130.0 130.95535900413947 L 130.41666666666666 126.83651488529537 L 130.83333333333331 128.04203023715218 L 131.25 128.44386868777113 L 131.66666666666666 130.3526013282111 L 132.08333333333331 132.56271280661525 L 132.5 135.37558196094784 L 132.91666666666666 141.1017798822677 L 133.33333333333331 144.7183259378382 L 133.75 153.65923146410955 L 134.16666666666666 155.96980255516843 L 134.58333333333331 156.873939069061 L 135.0 158.48129287153677 L 135.41666666666666 160.49048512463142 L 135.83333333333331 165.212086919404 L 136.25 171.03874445337857 L 136.66666666666669 177.06632121266267 L 137.08333333333334 182.79251913398252 L 137.5 190.5279093083971 L 137.91666666666669 199.66973405997797 L 138.33333333333334 206.19960888253573 L 138.75 211.52396835323665 L 139.16666666666669 211.4235087405819 L 139.58333333333334 210.31845300137985 L 140.0 209.61523571279668 L 140.41666666666669 208.61063958624933 L 140.83333333333334 207.00328578377358 L 141.25 205.99868965722627 L 141.66666666666666 205.49639159395255 L 142.08333333333334 204.59225508005994 L 142.5 202.9849012775842 L 142.91666666666666 202.9849012775842 L 143.33333333333334 202.5830628269653 L 143.75 202.5830628269653 L 144.16666666666666 202.9849012775842 L 144.58333333333334 202.68352243962 L 145.0 201.98030515103687 L 145.41666666666666 201.37754747510846 L 145.83333333333334 200.47341096121585 L 146.25 198.8660571587401 L 146.66666666666666 197.3591629689191 L 147.08333333333331 194.44583420193177 L 147.5 192.2357227235276 L 147.91666666666666 193.03939962476545 L 148.33333333333331 192.83848039945602 L 148.75 184.80171138707723 L 149.16666666666666 177.36770005062687 L 149.58333333333331 171.34012329134276 L 150.0 163.5042735042735 L 150.41666666666666 155.46750449189472 L 150.83333333333331 149.54038734526537 L 151.25 147.63165470482542 L 151.66666666666669 142.80959329739812 L 152.08333333333334 138.08799150262564 L 152.5 138.08799150262564 L 152.91666666666669 137.88707227731615 L 153.33333333333334 139.8962645304109 L 153.75 141.60407794554138 L 154.16666666666669 141.9054567835056 L 154.58333333333334 143.91464903660028 L 155.0 146.12476051500445 L 155.41666666666669 149.6408469579202 L 155.83333333333334 152.45371611225272 L 156.25 152.35325649959802 L 156.66666666666669 152.35325649959802 L 157.08333333333334 160.3900255119768 L 157.5 169.53185026355757 L 157.91666666666666 175.55942702284165 L 158.33333333333334 183.59619603522043 L 158.75 191.33158620963496 L 159.16666666666666 197.35916296891907 L 159.58333333333334 197.96192064484748 L 160.0 203.5876589535126 L 160.41666666666666 209.11293764952302 L 160.83333333333334 209.31385687483248 L 161.25 208.71109919890407 L 161.66666666666666 207.606043459702 L 162.08333333333331 205.79777043191675 L 162.5 204.19041662944102 L 162.91666666666666 201.47800708776316 L 163.33333333333331 199.46881483466854 L 163.75 192.33618233618236 L 164.16666666666666 190.02561124512346 L 164.58333333333331 190.12607085777816 L 165.0 190.42744969574238 L 165.41666666666666 188.01641899202872 L 165.83333333333331 188.61917666795716 L 166.25 189.52331318184977 L 166.66666666666669 190.12607085777816 L 167.08333333333331 191.5325054349444 L 167.5 192.5371015614918 L 167.91666666666669 193.9435361386581 L 168.33333333333331 193.34077846272967 L 168.75 187.81549976671926 L 169.16666666666669 182.4911402960183 L 169.58333333333331 177.76953850124582 L 170.0 172.84701748116382 L 170.41666666666669 173.75115399505646 L 170.83333333333331 173.3493155444375 L 171.25 175.86080586080587 L 171.66666666666669 177.26724043797213 L 172.08333333333331 177.1667808253174 L 172.5 177.76953850124582 L 172.91666666666666 175.35850779753218 L 173.33333333333331 176.1621846987701 L 173.75 179.57781152903104 L 174.16666666666666 179.07551346575733 L 174.58333333333331 180.38148843026892 L 175.0 181.28562494416153 L 175.41666666666669 181.28562494416153 L 175.83333333333331 181.58700378212572 L 176.25 180.8837864935426 L 176.66666666666669 181.7879230074352 L 177.08333333333331 188.61917666795716 L 177.5 195.04859187786016 L 177.91666666666669 201.2770878624537 L 178.33333333333331 207.30466462173783 L 178.75 207.40512423439253 L 179.16666666666669 200.87524941183477 L 179.58333333333331 200.37295134856112 L 180.0 199.56927444732324 L 180.41666666666666 202.88444166492948 L 180.83333333333331 203.18582050289368 L 181.25 205.2954723686431 L 181.66666666666666 204.39133585475048 L 182.08333333333331 204.19041662944105 L 182.5 203.88903779147682 L 182.91666666666663 195.65134955378855 L 183.33333333333331 186.1076863515888 L 183.75 180.58240765557838 L 184.16666666666666 174.45437128363955 L 184.58333333333331 174.95666934691326 L 185.0 173.85161360771116 L 185.41666666666666 164.30795040551135 L 185.83333333333331 161.09324280055984 L 186.25 157.87853519560838 L 186.66666666666666 154.5633679780021 L 187.08333333333331 151.24820076039586 L 187.5 156.67301984375158 L 187.91666666666663 147.83257393013488 L 188.33333333333331 139.3939664671372 L 188.75 133.46684932050786 L 189.16666666666666 125.12870147016488 L 189.58333333333331 117.09193245778609 L 190.00000000000003 116.28825555654822 L 190.41666666666666 115.78595749327457 L 190.83333333333334 114.6809017540725 L 191.24999999999997 122.71767076645126 L 191.66666666666669 131.65857629272264 L 192.08333333333334 136.38017808749515 L 192.5 141.4031587202319 L 192.91666666666669 138.69074917855406 L 193.33333333333337 139.6953453051014 L 193.75 142.40775484677923 L 194.16666666666669 144.4169470998739 L 194.58333333333334 147.1293566415518 L 195.0 150.14314502119382 L 195.41666666666669 147.43073547951596 L 195.83333333333334 150.44452385915804 L 196.25 158.8831313221557 L 196.66666666666669 167.12081955984394 L 197.08333333333334 175.76034624815108 L 197.5 184.70125177442245 L 197.91666666666669 193.54169768803914 L 198.33333333333337 195.2495111031696 L 198.75 196.0531880044075 L 199.16666666666669 195.55088994113382 L 199.58333333333334 191.1306669843255 L 200.0 190.02561124512343 L 200.41666666666669 186.40906518955302 L 200.83333333333334 184.500332549113 L 201.25 183.4957364225657 L 201.66666666666669 183.39527680991097 L 202.08333333333331 188.71963628061187 L 202.5 189.12147473123082 L 202.91666666666669 189.52331318184977 L 203.33333333333331 189.82469201981397 L 203.75 194.04399575131282 L 204.16666666666669 187.0118228654814 L 204.58333333333331 181.28562494416153 L 205.0 176.96586160000794 L 205.41666666666669 176.66448276204375 L 205.83333333333331 176.06172508611533 L 206.25 174.75575012160374 L 206.66666666666669 174.65529050894904 L 207.08333333333331 174.35391167098481 L 207.5 175.55942702284165 L 207.91666666666669 178.87459424044792 L 208.33333333333331 177.97045772655528 L 208.75 181.7879230074352 L 209.16666666666669 182.0893018453994 L 209.58333333333331 186.1076863515888 L 210.0 185.90676712627928 L 210.41666666666669 186.00722673893404 L 210.83333333333331 185.10309022504146 L 211.25 183.89757487318462 L 211.66666666666666 182.89297874663728 L 212.08333333333331 182.89297874663728 L 212.5 188.11687860468348 L 212.91666666666666 191.331586209635 L 213.33333333333331 194.8476726525507 L 213.75 194.04399575131282 L 214.16666666666663 193.03939962476548 L 214.58333333333331 189.3223939565403 L 215.0 188.11687860468348 L 215.41666666666666 187.41366131610033 L 215.83333333333331 186.3086055768983 L 216.25 183.89757487318462 L 216.66666666666666 184.09849409849411 L 217.08333333333331 183.39527680991097 L 217.5 184.80171138707723 L 217.91666666666666 183.4957364225657 L 218.33333333333331 182.79251913398255 L 218.75 181.38608455681626 L 219.16666666666663 181.58700378212575 L 219.58333333333331 181.58700378212575 L 220.0 181.48654416947102 L 220.41666666666666 180.48194804292365 L 220.83333333333331 181.28562494416153 L 221.25000000000003 182.79251913398252 L 221.66666666666666 179.27643269106684 L 222.08333333333334 174.45437128363955 L 222.49999999999997 167.12081955984394 L 222.91666666666669 168.22587529904604 L 223.33333333333334 162.80105621569038 L 223.75 157.37623713233467 L 224.16666666666669 157.57715635764418 L 224.58333333333337 159.08405054746515 L 225.0 159.48588899808416 L 225.41666666666669 157.67761597029886 L 225.83333333333334 159.1845101601199 L 226.25 159.1845101601199 L 226.66666666666669 159.38542938542938 L 227.08333333333334 160.18910628666725 L 227.5 159.28496977277464 L 227.91666666666669 158.48129287153677 L 228.33333333333334 157.57715635764416 L 228.75 157.57715635764418 L 229.16666666666669 158.4812928715368 L 229.58333333333337 159.3854293854294 L 230.0 164.70978885613033 L 230.41666666666669 171.74196174196177 L 230.83333333333334 181.48654416947102 L 231.25 186.10768635158882 L 231.66666666666669 192.5371015614918 L 232.08333333333334 198.46421870812114 L 232.5 198.46421870812114 L 232.91666666666669 197.86146103219272 L 233.33333333333331 197.76100141953796 L 233.75 198.5646783207759 L 234.16666666666669 197.25870335626433 L 234.58333333333331 197.96192064484748 L 235.0 199.36835522201375 L 235.41666666666669 199.97111289794216 L 235.83333333333331 203.5876589535126 L 236.25 205.8982300445715 L 236.66666666666669 208.5101799735946 L 237.08333333333331 212.22718564181977 L 237.5 212.6290240924387 L 237.91666666666669 211.1221299026177 L 238.33333333333331 210.2179933887251 L 238.75 201.8798455383821 L 239.16666666666669 194.74721303989594 L 239.58333333333331 187.915959379374 L 240.0 185.70584790096984 L 240.41666666666669 178.47275578982897 L 240.83333333333331 179.1759730784121 L 241.25 180.38148843026892 L 241.66666666666669 180.38148843026892 L 242.08333333333331 182.29022107070887 L 242.5 180.9842461061973 L 242.91666666666666 176.46356353673426 L 243.33333333333331 171.13920406603333 L 243.75 170.5364463901049 L 244.16666666666666 162.90151582834508 L 244.58333333333331 156.47210061844208 L 245.0 149.84176618322957 L 245.41666666666666 141.60407794554132 L 245.83333333333331 134.2705262217457 L 246.25 127.43927256122376 L 246.66666666666666 120.50755928804708 L 247.08333333333331 121.81353425255864 L 247.5 121.81353425255861 L 247.91666666666666 120.50755928804706 L 248.33333333333331 120.6080189007018 L 248.75 126.73605527264058 L 249.16666666666666 125.12870147016486 L 249.58333333333331 124.22456495627223 L 250.0 124.2245649562722 L 250.41666666666666 122.91858999176067 L 250.83333333333331 124.02364573096274 L 251.25 127.13789372325952 L 251.66666666666666 131.1562782294489 L 252.08333333333331 131.4576570674131 L 252.50000000000003 134.17006660909098 L 252.91666666666666 137.0833953760783 L 253.33333333333334 138.18845111528037 L 253.74999999999997 143.3118913606719 L 254.16666666666669 147.33027586686126 L 254.58333333333334 153.5587718514548 L 255.0 158.38083325888203 L 255.41666666666669 161.89691970179774 L 255.83333333333334 166.01576382064187 L 256.25 172.94747709381855 L 256.6666666666667 173.9520732203659 L 257.08333333333337 174.05253283302062 L 257.5 174.95666934691326 L 257.9166666666667 175.25804818487745 L 258.33333333333337 175.86080586080587 L 258.75 171.13920406603333 L 259.1666666666667 167.62311762311762 L 259.58333333333337 169.13001181293862 L 260.0 167.2212791724987 L 260.4166666666667 164.30795040551138 L 260.83333333333337 164.81024846878503 L 261.25 165.11162730674926 L 261.6666666666667 167.0203599471892 L 262.08333333333337 161.89691970179774 L 262.5 157.87853519560838 L 262.9166666666667 156.67301984375158 L 263.33333333333337 155.46750449189472 L 263.75 154.26198914003788 L 264.1666666666667 156.77347945640628 L 264.5833333333333 157.97899480826308 L 265.0 158.2803736462273 L 265.4166666666667 157.67761597029886 L 265.8333333333333 158.2803736462273 L 266.25 152.25279688694326 L 266.6666666666667 152.25279688694326 L 267.0833333333333 154.4629083653474 L 267.5 156.47210061844208 L 267.9166666666667 156.37164100578735 L 268.3333333333333 157.07485829437047 L 268.75 158.17991403357254 L 269.1666666666667 159.68680822339357 L 269.5833333333333 156.37164100578735 L 270.0 153.25739301349057 L 270.4166666666667 159.5863486107388 L 270.8333333333333 167.52265801046286 L 271.25 168.225875299046 L 271.6666666666667 167.12081955984397 L 272.0833333333333 166.01576382064187 L 272.5 158.1799140335726 L 272.9166666666667 152.55417572490745 L 273.3333333333333 151.6500392110148 L 273.75 152.05187766163374 L 274.16666666666663 151.24820076039586 L 274.5833333333333 158.2803736462273 L 275.0 156.97439868171577 L 275.41666666666663 159.78726783604833 L 275.8333333333333 161.796460089143 L 276.25 157.3762371323347 L 276.66666666666663 159.6868082233936 L 277.0833333333333 162.70059660303565 L 277.5 162.6001369903809 L 277.91666666666663 164.91070808143976 L 278.3333333333333 170.63690600275967 L 278.75 167.6231176231176 L 279.16666666666663 160.8923235752504 L 279.5833333333333 155.1661256539305 L 280.0 158.68221209684626 L 280.41666666666663 162.3992177650714 L 280.8333333333333 168.52725413701023 L 281.25 172.14380019258073 L 281.66666666666663 174.5548308962943 L 282.0833333333333 176.96586160000794 L 282.5 178.17137695186477 L 282.91666666666663 178.67367501513846 L 283.33333333333337 180.08010959230472 L 283.75 180.6828672682331 L 284.16666666666663 176.66448276204375 L 284.58333333333337 183.09389797194675 L 285.0 183.19435758460148 L 285.41666666666663 183.69665564787516 L 285.83333333333337 186.20814596424356 L 286.25 189.824692019814 L 286.66666666666663 190.92974775901604 L 287.08333333333337 194.04399575131282 L 287.5 199.8706532852874 L 287.91666666666663 207.9074222976662 L 288.33333333333337 209.31385687483248 L 288.75 209.71569532545143 L 289.16666666666663 210.5193722266893 L 289.58333333333337 211.02167028996297 L 290.0 209.51477610014194 L 290.41666666666663 207.40512423439253 L 290.83333333333337 207.20420500908307 L 291.25 206.30006849519046 L 291.66666666666663 199.5692744473232 L 292.08333333333337 191.23112659698023 L 292.5 188.71963628061187 L 292.91666666666663 184.70125177442247 L 293.33333333333337 183.99803448583938 L 293.75 182.3906806833636 L 294.16666666666663 181.28562494416153 L 294.58333333333337 181.98884223274464 L 295.0 181.98884223274464 L 295.41666666666663 184.0984940984941 L 295.8333333333333 185.3040094503509 L 296.25 186.60998441486245 L 296.66666666666663 187.0118228654814 L 297.0833333333333 186.91136325282665 L 297.5 186.00722673893407 L 297.91666666666663 181.88838262008994 L 298.3333333333333 180.48194804292368 L 298.75 180.08010959230472 L 299.16666666666663 178.97505385310268 L 299.5833333333333 178.17137695186477 L 300.0 184.902170999732 L 300.4166666666667 193.13985923742024 L 300.83333333333337 200.47341096121585 L 301.24999999999994 202.12326690750703 L 301.66666666666663 204.3333783859112 L 302.08333333333337 203.73062070998282 L 302.5 205.03659567449435 L 302.9166666666667 205.6393533504228 L 303.33333333333337 205.13705528714908 L 303.75 200.11407465441238 L 304.16666666666663 199.91315542910291 L 304.58333333333337 200.1140746544124 L 305.0 194.78971518371142 L 305.4166666666667 193.68465944450935 L 305.83333333333337 196.7989074368061 L 306.25 195.77885598523497 L 306.66666666666663 195.97977521054446 L 307.08333333333337 196.18069443585392 L 307.5 194.57334063337814 L 307.9166666666667 190.05265806391512 L 308.33333333333337 187.84254658551092 L 308.75 189.34944077533197 L 309.16666666666663 189.7512792259509 L 309.58333333333337 190.5124539833733 L 310.0 188.8046405682428 L 310.4166666666667 189.3069386315165 L 310.8333333333333 188.5032617302786 L 311.25 186.89590792780285 L 311.66666666666663 186.09223102656497 L 312.08333333333337 190.2110751454091 L 312.5 186.69498870249342 L 312.9166666666667 186.69498870249342 L 313.3333333333333 192.01934817319432 L 313.75 194.028540426289 L 314.16666666666663 193.32532313770588 L 314.58333333333337 200.27249173590639 L 315.0 202.9849012775842 L 315.4166666666667 200.47341096121588 L 315.8333333333333 199.66973405997797 L 316.25 204.89363391802414 L 316.66666666666663 208.00788191032092 L 317.08333333333337 205.69731081926204 L 317.5 205.19501275598833 L 317.9166666666667 206.09914926988097 L 318.3333333333333 203.98949740413155 L 318.75 205.49639159395258 L 319.16666666666663 205.49639159395258 L 319.58333333333337 201.07616863714424 L 320.0 196.75640529299065 L 320.4166666666667 196.55548606768122 L 320.8333333333333 197.96192064484748 L 321.25 195.75180916644334 L 321.66666666666663 194.5462938145865 L 322.08333333333337 190.5279093083971 L 322.5 183.39527680991097 L 322.91666666666663 179.4773519163763 L 323.3333333333333 175.45896741018692 L 323.75 179.87919036699526 L 324.16666666666663 183.99803448583936 L 324.58333333333337 185.0026306123867 L 325.0 185.00263061238667 L 325.41666666666663 184.500332549113 L 325.8333333333333 179.7787307543405 L 326.25 175.15758857222272 L 326.66666666666663 173.44977515709223 L 327.08333333333337 168.02495607373655 L 327.5 166.21668304595136 L 327.91666666666663 168.32633491170077 L 328.3333333333333 173.55023476974696 L 328.75 168.62771374966496 L 329.16666666666663 171.34012329134276 L 329.58333333333337 172.34471941789016 L 330.00000000000006 171.84242135461648 L 330.41666666666663 172.94747709381855 L 330.8333333333333 172.94747709381855 L 331.25 171.9428809672712 L 331.6666666666667 170.03414832683126 L 332.08333333333337 165.5134657573682 L 332.49999999999994 157.87853519560838 L 332.91666666666663 157.27577751967996 L 333.33333333333337 156.57256023109682 L 333.75 158.07945442091787 L 334.1666666666667 163.5042735042735 L 334.58333333333337 166.91990033453447 L 335.0 170.33552716479545 L 335.41666666666663 175.1575885722227 L 335.83333333333337 176.76494237469848 L 336.25 179.577811529031 L 336.6666666666667 179.27643269106682 L 337.08333333333337 184.0984940984941 L 337.5 182.1897614580541 L 337.91666666666663 182.1897614580541 L 338.33333333333337 183.19435758460148 L 338.75 185.90676712627928 L 339.1666666666667 192.0348034982181 L 339.58333333333337 194.74721303989594 L 340.0 198.9665167713948 L 340.41666666666663 203.08536089023895 L 340.83333333333337 210.72029145199878 L 341.25 209.9166145507609 L 341.6666666666667 210.41891261403455 L 342.0833333333333 209.41431648748724 L 342.5 204.9940935306789 L 342.91666666666663 204.69271469271467 L 343.33333333333337 204.39133585475048 L 343.75 204.19041662944102 L 344.1666666666667 200.87524941183477 L 344.5833333333333 200.47341096121585 L 345.0 200.57387057387058 L 345.41666666666663 195.75180916644334 L 345.83333333333337 196.65594568033595 L 346.25 193.03939962476545 L 346.6666666666667 189.52331318184977 L 347.0833333333333 188.31779782999294 L 347.5 186.20814596424353 L 347.91666666666663 185.3040094503509 L 348.33333333333337 182.18976145805414 L 348.75 180.48194804292365 L 349.1666666666667 178.97505385310268 L 349.5833333333333 178.57321540248373 L 350.0 176.36310392407955 L 350.41666666666663 176.26264431142482 L 350.83333333333337 179.57781152903107 L 351.25 176.36310392407955 L 351.6666666666667 176.2626443114248 L 352.0833333333333 175.76034624815114 L 352.5 177.86999811390055 L 352.91666666666663 176.66448276204375 L 353.33333333333337 174.5548308962943 L 353.75 177.3677000506269 L 354.16666666666663 174.85620973425853 L 354.5833333333333 178.57321540248367 L 355.0 182.5915999086731 L 355.41666666666663 182.18976145805414 L 355.83333333333337 181.18516533150682 L 356.25 182.5915999086731 L 356.66666666666663 185.40446906300562 L 357.0833333333333 185.6053882883151 L 357.5 179.47735191637628 L 357.91666666666663 179.07551346575735 L 358.33333333333337 179.37689230372158 L 358.75 174.7557501216038 L 359.16666666666663 170.43598677745018 L 359.5833333333333 165.5134657573682 L 360.0 158.8831313221557 L 360.41666666666663 157.57715635764416 L 360.83333333333337 155.6684237172042 L 361.25000000000006 155.9698025551684 L 361.66666666666663 155.9698025551684 L 362.0833333333333 155.9698025551684 L 362.5 156.37164100578735 L 362.9166666666667 156.37164100578735 L 363.33333333333337 154.06106991472845 L 363.74999999999994 154.76428720331162 L 364.16666666666663 157.3762371323347 L 364.58333333333337 157.57715635764418 L 365.0 149.7413065705749 L 365.4166666666667 142.2068356214698 L 365.83333333333337 146.22522012765916 L 366.25 148.33487199340857 L 366.66666666666663 150.14314502119385 L 367.08333333333337 152.45371611225272 L 367.5 154.4629083653474 L 367.9166666666667 154.46290836534735 L 368.33333333333337 153.05647378818108 L 368.75 146.3256797403139 L 369.16666666666663 147.3302758668612 L 369.58333333333337 146.22522012765913 L 370.0 146.32567974031386 L 370.4166666666667 146.4261393529686 L 370.83333333333337 146.22522012765913 L 371.25 145.92384128969493 L 371.66666666666663 146.52659896562335 L 372.08333333333337 146.62705857827808 L 372.5 144.9192451631476 L 372.9166666666667 145.1201643884571 L 373.3333333333333 153.0564737881811 L 373.75 157.97899480826308 L 374.16666666666663 160.69140434994097 L 374.58333333333337 159.8877274487031 L 375.0 159.28496977277467 L 375.4166666666667 158.1799140335726 L 375.8333333333333 157.97899480826308 L 376.25 167.2212791724987 L 376.66666666666663 175.65988663549638 L 377.08333333333337 184.0984940984941 L 377.5 185.80630751362457 L 377.9166666666667 187.21274209079087 L 378.3333333333333 188.51871705530243 L 378.75 190.02561124512343 L 379.16666666666663 191.93434388556338 L 379.58333333333337 192.13526311087284 L 380.0 193.13985923742018 L 380.4166666666667 193.64215730069387 L 380.8333333333333 194.44583420193175 L 381.25 190.929747759016 L 381.66666666666663 189.52331318184977 L 382.08333333333337 187.3132017034456 L 382.5 181.8883826200899 L 382.9166666666667 180.6828672682331 L 383.3333333333333 178.77413462779316 L 383.75 181.08470571885204 L 384.16666666666663 183.19435758460148 L 384.58333333333337 181.28562494416153 L 385.0 179.87919036699526 L 385.41666666666663 180.28102881761419 L 385.8333333333333 174.35391167098481 L 386.25 171.54104251665228 L 386.66666666666663 170.93828484072387 L 387.08333333333337 171.84242135461648 L 387.5 163.2028946663093 L 387.91666666666663 154.86474681596633 L 388.3333333333333 146.52659896562335 L 388.75 139.59488569244667 L 389.16666666666663 134.87328389767416 L 389.58333333333337 135.5765011862573 L 390.0 137.78661266466145 L 390.41666666666663 141.00132026961296 L 390.8333333333333 145.01970477580235 L 391.25 145.12016438845708 L 391.66666666666663 146.7275181909328 L 392.08333333333337 147.83257393013486 L 392.50000000000006 147.53119509217066 L 392.91666666666663 144.6178663251834 L 393.3333333333333 144.41694709987388 L 393.75 140.49902220633928 L 394.1666666666667 146.42613935296862 L 394.58333333333337 150.34406424650328 L 394.99999999999994 149.5403873452654 L 395.41666666666663 144.21602787456447 L 395.83333333333337 148.13395276809914 L 396.25 153.15693340083584 L 396.6666666666667 162.19829853976196 L 397.08333333333337 168.52725413701023 L 397.5 175.66761429800832 L 397.91666666666663 169.94141637668844 L 398.33333333333337 163.98338858001148 L 398.75 161.97419632691677 L 399.1666666666667 159.9650040738221 L 399.58333333333337 159.7640848485126 L 400.0 159.06086755992945 L 400.41666666666663 156.7502964688706 L 400.83333333333337 153.937427314538 L 401.25 152.22961389940752 L 401.6666666666667 145.39836023888557 L 402.08333333333337 140.47583921880357 L 402.5 138.76802580367308 L 402.91666666666663 136.65837393792364 L 403.33333333333337 132.63998943173428 L 403.75 128.72206453819962 L 404.1666666666667 131.13309524191322 L 404.5833333333333 132.43907020642476 L 405.0 130.53033756598484 L 405.41666666666663 129.72666066474693 L 405.83333333333337 126.80560423524773 L 406.25 128.212038812414 L 406.6666666666667 125.43008030812905 L 407.0833333333333 131.0558186167942 L 407.5 135.77742041156674 L 407.91666666666663 137.58569343935199 L 408.33333333333337 137.88707227731618 L 408.75 140.8004010443035 L 409.1666666666667 144.9192451631476 L 409.5833333333333 144.9192451631476 L 410.0 152.35325649959793 L 410.41666666666663 157.3762371323347 L 410.83333333333337 156.47210061844208 L 411.25 152.4537161122527 L 411.6666666666667 157.87853519560838 L 412.0833333333333 159.28496977277464 L 412.5 154.36244875269261 L 412.91666666666663 153.96061030207372 L 413.33333333333337 151.85095843632428 L 413.75 149.74130657057486 L 414.1666666666667 145.42154322642128 L 414.5833333333333 151.44911998570535 L 415.0 159.28496977277464 L 415.41666666666663 158.98359093481048 L 415.83333333333337 157.5771563576442 L 416.25 157.27577751968 L 416.66666666666663 159.48588899808414 L 417.0833333333333 161.09324280055986 L 417.5 156.1707217804779 L 417.91666666666663 157.3762371323347 L 418.33333333333337 158.88313132215575 L 418.75 163.4038138916188 L 419.16666666666663 166.31714265860612 L 419.5833333333333 172.4451790305449 L 420.0 171.74196174196177 L 420.41666666666663 177.76953850124585 L 420.83333333333337 183.89757487318462 L 421.25 185.90676712627928 L 421.66666666666663 184.80171138707723 L 422.0833333333333 188.2173382173382 L 422.5 195.14905149051495 L 422.91666666666663 197.05778413095487 L 423.33333333333337 198.56467832077593 L 423.75000000000006 196.05318800440756 L 424.16666666666663 195.6513495537886 L 424.5833333333333 192.83848039945602 L 425.0 184.6007921617678 L 425.4166666666667 175.05712895956796 L 425.83333333333337 173.85161360771116 L 426.24999999999994 177.46815966328163 L 426.66666666666663 176.06172508611533 L 427.08333333333337 176.06172508611533 L 427.5 176.56402314938902 L 427.9166666666667 177.1667808253174 L 428.33333333333337 178.07091733921004 L 428.75 178.77413462779316 L 429.16666666666663 180.28102881761419 L 429.58333333333337 180.28102881761419 L 430.0 179.07551346575738 L 430.4166666666667 173.55023476974696 L 430.83333333333337 169.02955220028392 L 431.25 161.09324280055984 L 431.66666666666663 157.17531790702523 L 432.08333333333337 156.17072178047786 L 432.5 156.17072178047783 L 432.9166666666667 158.17991403357254 L 433.33333333333337 164.2074907928566 L 433.75 171.13920406603333 L 434.16666666666663 173.44977515709223 L 434.58333333333337 173.55023476974696 L 435.0 173.75115399505643 L 435.4166666666667 171.9428809672712 L 435.8333333333333 172.04334057992594 L 436.25 172.54563864319965 L 436.66666666666663 173.95207322036592 L 437.08333333333337 173.14839631912804 L 437.5 170.03414832683129 L 437.9166666666667 169.2304714255934 L 438.3333333333333 174.45437128363957 L 438.75 179.87919036699526 L 439.16666666666663 181.58700378212575 L 439.58333333333337 182.89297874663728 L 440.0 185.8063075136246 L 440.4166666666667 187.51412092875506 L 440.8333333333333 186.60998441486245 L 441.25 185.9067671262793 L 441.66666666666663 185.40446906300565 L 442.08333333333337 187.11228247813614 L 442.5 191.43204582228975 L 442.9166666666667 193.24031885007497 L 443.3333333333333 194.74721303989597 L 443.75 196.15364761706226 L 444.16666666666663 194.94813226520543 L 444.58333333333337 194.14445536396755 L 445.0 193.84307652600336 L 445.4166666666667 193.9435361386581 L 445.8333333333333 195.65134955378855 L 446.25 196.15364761706226 L 446.66666666666663 195.95272839175277 L 447.08333333333337 197.25870335626433 L 447.5 199.36835522201375 L 447.91666666666663 205.09455314333363 L 448.3333333333333 204.79317430536943 L 448.75 206.50098772049992 L 449.16666666666663 208.91201842421353 L 449.58333333333337 211.52396835323665 L 450.0 214.23637789491448 L 450.41666666666663 215.04005479615236 L 450.8333333333333 214.43729712022395 L 451.25 213.1313221557124 L 451.66666666666663 212.22718564181977 L 452.08333333333337 210.8207510646535 L 452.5 207.40512423439253 L 452.91666666666663 206.30006849519046 L 453.3333333333333 204.59225508005994 L 453.75 205.5968512066073 L 454.16666666666663 206.60144733315465 L 454.58333333333337 207.9074222976662 L 455.00000000000006 206.50098772049992 L 455.41666666666663 205.39593198129782 L 455.8333333333333 201.37754747510846 L 456.25 196.85686490564538 L 456.6666666666667 195.04859187786016 L 457.08333333333337 195.45043032847911 L 457.49999999999994 191.23112659698023 L 457.91666666666663 185.70584790096984 L 458.33333333333337 179.87919036699526 L 458.75 179.1759730784121 L 459.1666666666667 178.5732154024837 L 459.58333333333337 176.66448276204375 L 460.0 175.76034624815114 L 460.41666666666663 176.2626443114248 L 460.83333333333337 179.27643269106684 L 461.25 180.0801095923047 L 461.6666666666667 179.1759730784121 L 462.08333333333337 178.37229617717423 L 462.5 176.56402314938902 L 462.91666666666663 176.06172508611533 L 463.33333333333337 177.3677000506269 L 463.75 178.97505385310265 L 464.1666666666667 183.7971152605299 L 464.58333333333337 189.12147473123082 L 465.0 191.83388427290865 L 465.41666666666663 189.72423240715923 L 465.83333333333337 186.20814596424353 L 466.25 188.31779782999294 L 466.6666666666667 192.33618233618236 L 467.0833333333333 185.0026306123867 L 467.5 178.27183656451948 L 467.91666666666663 177.46815966328163 L 468.33333333333337 175.05712895956796 L 468.75 168.225875299046 L 469.1666666666667 167.82403684842708 L 469.5833333333333 162.80105621569035 L 470.0 158.58175248419147 L 470.41666666666663 158.48129287153674 L 470.83333333333337 160.8923235752504 L 471.25 161.69600047648828 L 471.6666666666667 163.80565234223772 L 472.0833333333333 163.80565234223772 L 472.5 162.62331997791662 L 472.91666666666663 154.88792980350206 L 473.33333333333337 153.13375041330013 L 473.75 147.10617365401603 L 474.1666666666667 150.62226009693177 L 474.5833333333333 152.33007351206226 L 475.0 151.42593699816965 L 475.41666666666663 158.35765027134633 L 475.83333333333337 166.29395967107038 L 476.25 169.70958650133133 L 476.6666666666667 170.71418262787867 L 477.0833333333333 177.4449766757459 L 477.5 178.2486535769838 L 477.91666666666663 183.7739322729942 L 478.33333333333337 189.50013019431404 L 478.75 192.0116205106824 L 479.16666666666663 192.31299934864663 L 479.5833333333333 192.31299934864663 L 480.0 191.0070243841351 L 480.41666666666663 189.09829174369514 L 480.83333333333337 189.0751087561594 L 481.25 194.70084706482456 L 481.66666666666663 194.94813226520543 L 482.0833333333333 201.77938592572738 L 482.5 206.80236655846412 L 482.91666666666663 208.5101799735946 L 483.33333333333337 210.8207510646535 L 483.75 211.52396835323665 L 484.16666666666663 210.92121067730824 L 484.5833333333333 210.8207510646535 L 485.0 213.43270099367663 L 485.41666666666663 214.03545866960502 L 485.83333333333337 214.03545866960505 L 486.25000000000006 212.12672602916507 L 486.66666666666663 211.82534719120085 L 487.0833333333333 209.11293764952302 L 487.5 203.4871993408579 L 487.9166666666667 201.67892631307268 L 488.33333333333337 200.17203212325163 L 488.74999999999994 198.76559754608536 L 489.16666666666663 197.96192064484748 L 489.58333333333337 198.26329948281168 L 490.0 197.56008219422853 L 490.4166666666667 198.26329948281168 L 490.83333333333337 195.24951110316962 L 491.25 191.9343438855634 L 491.66666666666663 188.61917666795716 L 492.08333333333337 186.30860557689826 L 492.5 183.19435758460148 L 492.9166666666667 180.08010959230472 L 493.33333333333337 178.97505385310262 L 493.75 177.1667808253174 L 494.16666666666663 177.46815966328163 L 494.58333333333337 178.97505385310262 L 495.0 180.28102881761419 L 495.4166666666667 180.38148843026892 L 495.83333333333337 185.40446906300565 L 496.25 184.80171138707723 L 496.66666666666663 186.2081459642435 L 497.08333333333337 189.12147473123082 L 497.5 190.62836892105184 L 497.9166666666667 192.5371015614918 L 498.3333333333333 194.94813226520543 L 498.75 192.7380207868013 L 499.16666666666663 188.51871705530243 L 499.58333333333337 190.32699008308762 L 500.0 193.03939962476548 L 500.4166666666667 195.2495111031696 L 500.8333333333333 198.86605715874006 L 501.25 202.08076476369158 L 501.66666666666663 202.3821436016558 L 502.08333333333337 204.89363391802416 L 502.5 201.98030515103687 L 502.9166666666667 202.28168398900107 L 503.3333333333333 202.08076476369158 L 503.75 203.28628011554838 L 504.16666666666663 202.98490127758419 L 504.58333333333337 205.39593198129785 L 505.0 206.30006849519046 L 505.4166666666667 206.19960888253573 L 505.8333333333333 206.30006849519046 L 506.25 206.50098772049992 L 506.66666666666663 205.69731081926204 L 507.08333333333337 207.80696268501146 L 507.5 213.63362021898607 L 507.9166666666667 213.83453944429553 L 508.3333333333333 213.33224138102187 L 508.75 212.72948370509346 L 509.16666666666663 211.82534719120082 L 509.58333333333337 202.98490127758419 L 510.0 196.55548606768122 L 510.41666666666663 188.5187170553024 L 510.8333333333333 190.22653047043292 L 511.25 188.31779782999294 L 511.66666666666663 186.60998441486245 L 512.0833333333334 185.9067671262793 L 512.5 185.9067671262793 L 512.9166666666666 179.37689230372158 L 513.3333333333333 172.84701748116382 L 513.75 170.33552716479545 L 514.1666666666666 168.02495607373658 L 514.5833333333334 165.81484459533243 L 515.0 161.09324280055986 L 515.4166666666666 152.25279688694326 L 515.8333333333333 143.7137298112908 L 516.25 144.4169470998739 L 516.6666666666667 144.11556826190974 L 517.0833333333333 144.7183259378382 L 517.5 144.21602787456447 L 517.9166666666666 152.75509495021694 L 518.3333333333333 161.09324280055986 L 518.75 169.93368871417653 L 519.1666666666667 171.9428809672712 L 519.5833333333334 174.05253283302065 L 520.0 175.6598866354964 L 520.4166666666667 176.46356353673426 L 520.8333333333333 176.46356353673426 L 521.25 181.486544169471 L 521.6666666666667 184.39987293645828 L 522.0833333333334 178.87459424044792 L 522.5 173.3493155444375 L 522.9166666666667 171.44058290399755 L 523.3333333333333 176.76494237469848 L 523.75 181.7879230074352 L 524.1666666666667 185.70584790096984 L 524.5833333333334 181.8883826200899 L 525.0 179.07551346575738 L 525.4166666666667 175.05712895956796 L 525.8333333333333 167.2212791724987 L 526.25 167.72357723577235 L 526.6666666666667 167.72357723577235 L 527.0833333333334 166.3171426586061 L 527.5 165.61392537002294 L 527.9166666666667 162.80105621569035 L 528.3333333333333 158.782671709501 L 528.75 158.4812928715368 L 529.1666666666667 157.37623713233467 L 529.5833333333333 152.35325649959796" style="opacity:0.75;stroke:rgb(40%,76.1%,64.7%);stroke-opacity:1.0;stroke-width:2.0" /></g><g class="toyplot-Series"><path d="M 57.916666666666664 153.39795705649368 L 58.33333333333333 152.23056076714613 L 58.75 147.60266833437566 L 59.16666666666667 142.76631227850737 L 59.58333333333333 137.26287262872626 L 60.0 132.63498019595585 L 60.41666666666666 128.8409422555764 L 60.83333333333333 122.58703356264333 L 61.25 119.626850114655 L 61.66666666666667 120.5023973316656 L 62.08333333333333 118.25099020220975 L 62.5 119.12653741922037 L 62.916666666666664 115.20742130498229 L 63.33333333333334 110.41275797373356 L 63.75 110.62122159683139 L 64.16666666666667 114.87387950802588 L 64.58333333333333 115.5826558265583 L 65.0 110.20429435063583 L 65.41666666666666 107.03564727954975 L 65.83333333333334 105.701480091724 L 66.25 102.11590577444237 L 66.66666666666667 101.82405670210548 L 67.08333333333333 108.11965811965814 L 67.5 114.45695226183032 L 67.91666666666666 119.41838649155727 L 68.33333333333334 122.92057535959975 L 68.75 125.13028976443614 L 69.16666666666667 124.21304982280591 L 69.58333333333333 122.42026266416511 L 70.0 122.42026266416511 L 70.41666666666667 127.756931415468 L 70.83333333333334 129.34125495101102 L 71.25 132.5515947467167 L 71.66666666666667 135.1782363977486 L 72.08333333333333 130.50865124035855 L 72.5 133.59391286220554 L 72.91666666666667 125.2970606629143 L 73.33333333333334 125.2136752136752 L 73.75 128.0487804878049 L 74.16666666666667 123.71273712737127 L 74.58333333333333 119.25161559307902 L 75.0 115.33249947884096 L 75.41666666666667 108.20304356889724 L 75.83333333333334 101.86574942672506 L 76.25 101.78236397748594 L 76.66666666666667 102.40775484677927 L 77.08333333333333 99.36418594955182 L 77.5 101.99082760058371 L 77.91666666666667 104.57577652699607 L 78.33333333333334 110.12090890139672 L 78.75 110.78799249530957 L 79.16666666666667 116.08296852199291 L 79.58333333333333 120.5023973316656 L 80.0 123.75442985199086 L 80.41666666666667 131.3841984573692 L 80.83333333333333 130.42526579111944 L 81.25 137.88826349801963 L 81.66666666666667 143.1415468000834 L 82.08333333333333 141.4321450906817 L 82.5 146.72712111736504 L 82.91666666666666 150.27100271002712 L 83.33333333333333 149.3537627683969 L 83.75 156.15364761706226 L 84.16666666666666 158.11320567418127 L 84.58333333333333 160.36461280363721 L 85.0 161.44862364374558 L 85.41666666666667 159.65583648510477 L 85.83333333333334 157.02919483407288 L 86.25 154.44424590766053 L 86.66666666666666 155.19471495081248 L 87.08333333333334 147.39817544695592 L 87.5 140.5188758847295 L 87.91666666666667 132.88910727935118 L 88.33333333333333 127.92767304962426 L 88.75 120.29790444424592 L 89.16666666666666 114.7944647944648 L 89.58333333333334 107.33146708756468 L 90.0 99.7016984821863 L 90.41666666666666 94.23995155702474 L 90.83333333333333 88.94497553034142 L 91.25 85.40109393767933 L 91.66666666666666 86.31833387930952 L 92.08333333333333 79.5184490306442 L 92.5 76.68334375651453 L 92.91666666666666 69.55388784657079 L 93.33333333333334 63.46675005211593 L 93.75 70.97144048363566 L 94.16666666666666 77.64227642276427 L 94.58333333333334 80.93600166770902 L 95.0 76.2247237856994 L 95.41666666666667 79.60183447988327 L 95.83333333333333 81.10277256618721 L 96.25 83.52095059412135 L 96.66666666666666 91.82772963260769 L 97.08333333333334 90.9104896909775 L 97.5 97.73618432155018 L 97.91666666666667 103.71412688485859 L 98.33333333333333 103.71412688485862 L 98.75 104.58967410186925 L 99.16666666666666 105.46522131887988 L 99.58333333333334 107.17462302828157 L 100.0 115.34639705371414 L 100.41666666666666 123.18462928219024 L 100.83333333333334 131.39809603224234 L 101.25 139.73664095615314 L 101.66666666666667 148.28364950316168 L 102.08333333333334 145.9071641998471 L 102.5 148.28364950316168 L 102.91666666666667 152.03599471892156 L 103.33333333333334 157.1641998471267 L 103.75 154.704329094573 L 104.16666666666666 152.32784379125843 L 104.58333333333334 156.20526718087692 L 105.0 153.1100787198348 L 105.41666666666667 157.15427300793152 L 105.83333333333333 151.07904742051085 L 106.25 145.10110485720244 L 106.66666666666666 145.10110485720242 L 107.08333333333334 144.2255576401918 L 107.5 143.35001042318117 L 107.91666666666666 141.64060871377944 L 108.33333333333334 141.7656868876381 L 108.75 142.3493850323119 L 109.16666666666666 142.9747759016052 L 109.58333333333334 140.34813425057328 L 110.0 140.4315196998124 L 110.41666666666666 144.2672503648114 L 110.83333333333334 143.55847404627897 L 111.25 144.3506358140505 L 111.66666666666666 139.13904523660622 L 112.08333333333331 141.5155305399208 L 112.5 149.3537627683969 L 112.91666666666666 151.27162810089638 L 113.33333333333334 151.68855534709192 L 113.75 156.2330623306233 L 114.16666666666666 161.15280383573065 L 114.58333333333334 167.2399416301855 L 115.0 172.7016885553471 L 115.41666666666666 180.49822805920365 L 115.83333333333333 189.12862205545136 L 116.25 195.71607254534086 L 116.66666666666666 187.4192203460496 L 117.08333333333331 178.99728997289975 L 117.5 170.15843235355433 L 117.91666666666666 164.44652908067542 L 118.33333333333331 155.81613508442777 L 118.75 148.64498644986452 L 119.16666666666666 141.22368146758393 L 119.58333333333331 139.2641234104649 L 120.00000000000001 141.7656868876381 L 120.41666666666667 139.38920158432356 L 120.83333333333334 130.63372941421724 L 121.25 122.42026266416512 L 121.66666666666669 116.79174484052535 L 122.08333333333334 109.12028351052746 L 122.5 102.61621846987703 L 122.91666666666667 96.5290806754222 L 123.33333333333334 91.06733375026059 L 123.75 82.35355430477385 L 124.16666666666669 76.89180737961227 L 124.58333333333334 78.22597456743799 L 125.0 86.48113404210969 L 125.41666666666667 94.61121534292269 L 125.83333333333334 102.78298936835526 L 126.25 107.16072545340842 L 126.66666666666666 113.58140504481969 L 127.08333333333334 113.58140504481969 L 127.5 121.29455909943718 L 127.91666666666666 123.04565353345845 L 128.33333333333334 126.58953512612052 L 128.75 135.0948509485095 L 129.16666666666666 144.30894308943093 L 129.58333333333334 151.85532624557018 L 130.0 159.27663122785077 L 130.41666666666666 164.48822180529498 L 130.83333333333331 167.15655618094644 L 131.25 167.15655618094644 L 131.66666666666666 168.03210339795706 L 132.08333333333331 168.94934333958727 L 132.5 165.78069626850115 L 132.91666666666666 157.8590785907859 L 133.33333333333331 149.60391911611427 L 133.75 141.47383781530124 L 134.16666666666666 134.17761100687932 L 134.58333333333331 129.79987492182613 L 135.0 123.37919533041486 L 135.41666666666666 123.33750260579532 L 135.83333333333331 116.49989576818847 L 136.25 110.66291432145093 L 136.66666666666669 103.11653116531167 L 137.08333333333334 95.48676255993334 L 137.5 87.1899103606421 L 137.91666666666669 79.64352720450283 L 138.33333333333334 72.22222222222226 L 138.75 67.010631644778 L 139.16666666666669 64.34229726912658 L 139.58333333333334 64.34229726912658 L 140.0 64.34229726912658 L 140.41666666666669 64.34229726912658 L 140.83333333333334 63.42505732749639 L 141.25 64.30060454450701 L 141.66666666666666 63.38336460287684 L 142.08333333333334 62.46612466124664 L 142.5 60.67333750260586 L 142.91666666666666 61.54888471961645 L 143.33333333333334 62.3827392120075 L 143.75 61.54888471961644 L 144.16666666666666 60.6733375026058 L 144.58333333333334 59.797790285595156 L 145.0 58.92224306858451 L 145.41666666666666 58.04669585157389 L 145.83333333333334 58.04669585157389 L 146.25 63.9670627475506 L 146.66666666666666 68.59495518032107 L 147.08333333333331 75.18240567021057 L 147.5 76.01626016260161 L 147.91666666666666 83.35417969564311 L 148.33333333333331 89.14946841776108 L 148.75 95.61184073379196 L 149.16666666666666 103.24160933917031 L 149.58333333333331 109.07859078590788 L 150.0 116.41651031894932 L 150.41666666666666 120.58578278090474 L 150.83333333333331 124.71336251824059 L 151.25 124.71336251824059 L 151.66666666666669 125.5889097352512 L 152.08333333333334 127.29831144465291 L 152.5 131.1340421096519 L 152.91666666666669 134.96977277465083 L 153.33333333333334 137.47133625182406 L 153.75 143.55847404627892 L 154.16666666666669 150.187617260788 L 154.58333333333334 152.7725661872003 L 155.0 149.81238273921198 L 155.41666666666669 144.9343339587242 L 155.83333333333334 144.10047946633313 L 156.25 136.76255993329164 L 156.66666666666669 130.09172399416303 L 157.08333333333334 123.62935167813218 L 157.5 116.916823014384 L 157.91666666666666 110.20429435063582 L 158.33333333333334 104.61746925161562 L 158.75 101.36543673129039 L 159.16666666666666 99.03064415259539 L 159.58333333333334 99.03064415259539 L 160.0 97.32124244319368 L 160.41666666666666 95.61184073379196 L 160.83333333333334 91.77611006879303 L 161.25 87.94037940379408 L 161.66666666666666 86.31436314363148 L 162.08333333333331 81.10277256618721 L 162.5 75.3491765686888 L 162.91666666666666 67.71940796331046 L 163.33333333333331 66.05169897852828 L 163.75 69.55388784657082 L 164.16666666666666 72.22222222222226 L 164.58333333333331 78.47613091515535 L 165.0 84.68834688346887 L 165.41666666666666 87.69022305607672 L 165.83333333333331 88.56577027308738 L 166.25 89.441317490098 L 166.66666666666669 88.60746299770695 L 167.08333333333331 92.81842818428187 L 167.5 92.81842818428187 L 167.91666666666669 91.94288096727126 L 168.33333333333331 91.94288096727126 L 168.75 96.82092974775904 L 169.16666666666669 102.82468209297477 L 169.58333333333331 108.53658536585365 L 170.0 112.87262872628727 L 170.41666666666669 111.99708150927665 L 170.83333333333331 115.33249947884096 L 171.25 114.45695226183035 L 171.66666666666669 120.4607046070461 L 172.08333333333331 122.33687721492603 L 172.5 118.79299562226392 L 172.91666666666666 119.2099228684595 L 173.33333333333331 116.916823014384 L 173.75 116.41651031894935 L 174.16666666666666 124.2547425474255 L 174.58333333333331 125.83906608296853 L 175.0 127.5067750677507 L 175.41666666666669 125.79737335834898 L 175.83333333333331 124.92182614133837 L 176.25 124.92182614133836 L 176.66666666666669 131.34250573274966 L 177.08333333333331 126.46445695226186 L 177.5 126.0475297060663 L 177.91666666666669 123.5876589535126 L 178.33333333333331 121.62810089639358 L 178.75 123.29580988117571 L 179.16666666666669 126.42276422764229 L 179.58333333333331 127.29831144465291 L 180.0 122.17010631644776 L 180.41666666666666 119.58515739003542 L 180.83333333333331 120.4607046070461 L 181.25 114.66541588492811 L 181.66666666666666 113.24786324786326 L 182.08333333333331 110.74629977069004 L 182.5 102.0325203252033 L 182.91666666666663 108.70335626433192 L 183.33333333333331 113.45632687096105 L 183.75 119.25161559307907 L 184.16666666666666 126.83969147383785 L 184.58333333333331 131.21742755889102 L 185.0 129.17448405253288 L 185.41666666666666 136.9293308317699 L 185.83333333333331 131.34250573274966 L 186.25 128.09047321242448 L 186.66666666666666 124.83844069209927 L 187.08333333333331 123.17073170731709 L 187.5 115.83281217427562 L 187.91666666666663 122.9622680842193 L 188.33333333333331 126.54784240150092 L 188.75 128.2989368355222 L 189.16666666666666 133.55222013758598 L 189.58333333333331 137.26287262872629 L 190.00000000000003 135.63685636856368 L 190.41666666666666 136.51240358557436 L 190.83333333333334 137.38795080258495 L 191.24999999999997 128.25724411090266 L 191.66666666666669 121.83656451949136 L 192.08333333333334 119.71023556389413 L 192.5 117.83406295601418 L 192.91666666666669 119.87700646237232 L 193.33333333333337 120.83593912862204 L 193.75 119.1682301438399 L 194.16666666666669 120.04377736085053 L 194.58333333333334 124.58828434438192 L 195.0 128.96602042943508 L 195.41666666666669 138.01334167187824 L 195.83333333333334 138.01334167187824 L 196.25 130.00833854492393 L 196.66666666666669 125.54721701063163 L 197.08333333333334 119.29330831769855 L 197.5 113.16447779862415 L 197.91666666666669 108.57827809047322 L 198.33333333333337 106.78549093183246 L 198.75 104.9927037731916 L 199.16666666666669 111.12153429226603 L 199.58333333333334 116.75005211590582 L 200.0 122.75380446112156 L 200.41666666666669 123.92120075046907 L 200.83333333333334 124.92182614133836 L 201.25 125.7139879091099 L 201.66666666666669 121.25286637481761 L 202.08333333333331 116.0412757973734 L 202.5 116.0412757973734 L 202.91666666666669 110.57952887221182 L 203.33333333333331 105.2845528455285 L 203.75 97.07108609547637 L 204.16666666666669 102.24098394830105 L 204.58333333333331 107.16072545340839 L 205.0 111.53846153846155 L 205.41666666666669 111.53846153846155 L 205.83333333333331 111.53846153846155 L 206.25 112.41400875547218 L 206.66666666666669 119.96039191161145 L 207.08333333333331 120.87763185324164 L 207.5 113.87325411715656 L 207.91666666666669 113.66479049405879 L 208.33333333333331 114.24848863873254 L 208.75 114.83218678340633 L 209.16666666666669 116.54158849280802 L 209.58333333333331 110.20429435063583 L 210.0 110.20429435063583 L 210.41666666666669 110.20429435063583 L 210.83333333333331 110.20429435063583 L 211.25 111.99708150927668 L 211.66666666666666 113.78986866791745 L 212.08333333333331 113.83156139253703 L 212.5 109.53721075672298 L 212.91666666666666 105.49301646862625 L 213.33333333333331 101.99082760058374 L 213.75 102.86637481759435 L 214.16666666666663 109.12028351052746 L 214.58333333333331 116.87513028976448 L 215.0 118.66791744840529 L 215.41666666666666 121.66979362101316 L 215.83333333333331 122.5453408380238 L 216.25 117.1252866374818 L 216.66666666666666 110.53783614759227 L 217.08333333333331 102.61621846987705 L 217.5 95.0698353137378 L 217.91666666666666 94.19428809672716 L 218.33333333333331 93.31874087971653 L 218.75 92.44319366270591 L 219.16666666666663 91.56764644569523 L 219.58333333333331 90.69209922868461 L 220.0 89.816552011674 L 220.41666666666666 88.94100479466336 L 220.83333333333331 88.06545757765274 L 221.25000000000003 88.06545757765274 L 221.66666666666666 92.65165728580367 L 222.08333333333334 99.98957681884512 L 222.49999999999997 100.1146549927038 L 222.91666666666669 98.697102355639 L 223.33333333333334 98.23848238482387 L 223.75 103.03314571607255 L 224.16666666666669 102.15759849906192 L 224.58333333333337 102.15759849906195 L 225.0 102.15759849906192 L 225.41666666666669 102.15759849906195 L 225.83333333333334 101.28205128205133 L 226.25 101.2820512820513 L 226.66666666666669 101.28205128205133 L 227.08333333333334 101.28205128205133 L 227.5 101.28205128205133 L 227.91666666666669 101.28205128205133 L 228.33333333333334 101.28205128205133 L 228.75 101.28205128205133 L 229.16666666666669 101.28205128205133 L 229.58333333333337 100.40650406504068 L 230.0 94.94475713987912 L 230.41666666666669 86.73129038982702 L 230.83333333333334 80.35230352303529 L 231.25 73.13946216385243 L 231.66666666666669 65.17615176151763 L 232.08333333333334 58.2551594746717 L 232.5 58.2551594746717 L 232.91666666666669 59.13070669168234 L 233.33333333333331 60.00625390869298 L 233.75 60.00625390869294 L 234.16666666666669 60.00625390869294 L 234.58333333333331 62.46612466124664 L 235.0 63.34167187825728 L 235.41666666666669 69.0118824265166 L 235.83333333333331 69.88742964352726 L 236.25 70.76297686053788 L 236.66666666666669 70.76297686053788 L 237.08333333333331 69.8457369189077 L 237.5 69.84573691890768 L 237.91666666666669 69.84573691890768 L 238.33333333333331 68.9284969772775 L 238.75 76.76672920575362 L 239.16666666666669 85.35543047738172 L 239.58333333333331 94.02751719824893 L 240.0 101.19866583281218 L 240.41666666666669 106.0767146133 L 240.83333333333331 114.16510318949346 L 241.25 121.12778820095896 L 241.66666666666669 121.12778820095895 L 242.08333333333331 128.3823222847613 L 242.5 134.51115280383573 L 242.91666666666666 138.59703981655204 L 243.33333333333331 143.0581613508443 L 243.75 137.38795080258495 L 244.16666666666666 143.89201584323536 L 244.58333333333331 150.06253908692935 L 245.0 158.48446946007923 L 245.41666666666666 167.61517615176152 L 245.83333333333331 176.5791119449656 L 246.25 183.87533875338755 L 246.66666666666666 192.6725036481134 L 247.08333333333331 192.13049822805922 L 247.5 190.37940379403796 L 247.91666666666666 187.0856785490932 L 248.33333333333331 179.91452991452994 L 248.75 173.2436939754013 L 249.16666666666666 164.23806545757765 L 249.58333333333331 155.48259328747133 L 250.0 155.48259328747133 L 250.41666666666666 149.1036064206796 L 250.83333333333331 143.85032311861582 L 251.25 138.18011257035647 L 251.66666666666666 132.8434438190536 L 252.08333333333331 133.7189910360642 L 252.50000000000003 127.17323327079427 L 252.91666666666666 121.7948717948718 L 253.33333333333334 115.04065040650406 L 253.74999999999997 107.7027308734626 L 254.16666666666669 99.61434229726913 L 254.58333333333334 93.19366270585783 L 255.0 86.18928496977281 L 255.41666666666669 79.7686053783615 L 255.83333333333334 77.39212007504695 L 256.25 72.88930581613509 L 256.6666666666667 80.22722534917656 L 257.08333333333337 89.56639566395668 L 257.5 98.69710235563898 L 257.9166666666667 99.61434229726916 L 258.33333333333337 98.73879508025851 L 258.75 106.03502188868043 L 259.1666666666667 110.70460704607045 L 259.58333333333337 109.82905982905984 L 260.0 118.45945382530752 L 260.4166666666667 125.08859703981656 L 260.83333333333337 132.05128205128204 L 261.25 138.55534709193248 L 261.6666666666667 145.22618303106108 L 262.08333333333337 151.8970189701897 L 262.5 158.27600583698148 L 262.9166666666667 163.86283093600167 L 263.33333333333337 170.11673962893474 L 263.75 178.16343548050867 L 264.1666666666667 182.0825515947467 L 264.5833333333333 182.0825515947467 L 265.0 175.62017927871585 L 265.4166666666667 171.7010631644778 L 265.8333333333333 165.1969981238274 L 266.25 173.4938503231186 L 266.6666666666667 182.0825515947467 L 267.0833333333333 182.58286429018136 L 267.5 185.50135501355012 L 267.9166666666667 189.21200750469043 L 268.3333333333333 187.12737127371275 L 268.75 185.87658953512613 L 269.1666666666667 184.41734417344173 L 269.5833333333333 183.45841150719198 L 270.0 181.20700437773607 L 270.4166666666667 181.20700437773607 L 270.8333333333333 179.49760266833437 L 271.25 180.70669168230143 L 271.6666666666667 179.08067542213882 L 272.0833333333333 175.1198665832812 L 272.5 173.70231394621638 L 272.9166666666667 180.41484260996452 L 273.3333333333333 179.53929539295393 L 273.75 175.0364811340421 L 274.16666666666663 173.3270794246404 L 274.5833333333333 166.69793621013133 L 275.0 164.98853450072963 L 275.41666666666663 159.65186574942672 L 275.8333333333333 158.65124035855746 L 276.25 161.61142380654576 L 276.66666666666663 155.06566604127585 L 277.0833333333333 148.81175734834272 L 277.5 149.10360642067963 L 277.91666666666663 147.477590160517 L 278.3333333333333 142.26599958307276 L 278.75 142.18261413383365 L 279.16666666666663 141.64060871377944 L 279.5833333333333 140.89013967062746 L 280.0 135.38670002084638 L 280.41666666666663 135.42839274546589 L 280.8333333333333 133.46883468834687 L 281.25 131.2591202835105 L 281.66666666666663 137.92995622263913 L 282.0833333333333 137.92995622263913 L 282.5 137.9299562226392 L 282.91666666666663 137.13779445486765 L 283.33333333333337 130.25849489264127 L 283.75 126.00583698144676 L 284.16666666666663 125.797373358349 L 284.58333333333337 119.12653741922037 L 285.0 119.12653741922037 L 285.41666666666663 119.12653741922037 L 285.83333333333337 112.49739420471131 L 286.25 106.91056910569111 L 286.66666666666663 106.03502188868046 L 287.08333333333337 98.57202418178031 L 287.5 93.56889722743384 L 287.91666666666663 86.64790494058789 L 288.33333333333337 86.64790494058789 L 288.75 81.64477798624144 L 289.16666666666663 77.51719824890557 L 289.58333333333337 78.14258911819891 L 290.0 78.51782363977486 L 290.41666666666663 84.64665415884933 L 290.83333333333337 91.31749009797794 L 291.25 95.82030435688978 L 291.66666666666663 99.69772774650826 L 292.08333333333337 105.70148009172402 L 292.5 103.53345841150723 L 292.91666666666663 110.24598707525541 L 293.33333333333337 111.95538878465712 L 293.75 120.25224098394833 L 294.16666666666663 120.25224098394833 L 294.58333333333337 119.33500104231813 L 295.0 118.41776110068795 L 295.41666666666663 117.50052115905775 L 295.8333333333333 116.58328121742755 L 296.25 115.6660412757974 L 296.66666666666663 114.74880133416718 L 297.0833333333333 114.74880133416715 L 297.5 115.58265582655824 L 297.91666666666663 114.54033771106941 L 298.3333333333333 112.12215968313531 L 298.75 105.99332916406088 L 299.16666666666663 99.32249322493226 L 299.5833333333333 93.9441317490098 L 300.0 91.776110068793 L 300.4166666666667 94.486137169064 L 300.83333333333337 89.39962476547842 L 301.24999999999994 88.26536322043381 L 301.66666666666663 85.63872156940195 L 302.08333333333337 76.42462942848054 L 302.5 75.50738948685036 L 302.9166666666667 75.50738948685036 L 303.33333333333337 80.76067278891416 L 303.75 86.63934696027124 L 304.16666666666663 86.63934696027124 L 304.58333333333337 86.63934696027124 L 305.0 94.43588646412782 L 305.4166666666667 101.60703509869109 L 305.83333333333337 107.56969032963899 L 306.25 110.32141015452956 L 306.66666666666663 108.15338847431278 L 307.08333333333337 115.57469345659334 L 307.5 123.37123296044992 L 307.9166666666667 130.95930884120875 L 308.33333333333337 129.24990713180702 L 308.75 122.32891484496109 L 309.16666666666663 129.7919125518612 L 309.58333333333337 131.59325769081866 L 310.0 133.3860448494595 L 310.4166666666667 137.55531731141485 L 310.8333333333333 144.89323684445637 L 311.25 151.4389946097263 L 311.66666666666663 147.9784984663034 L 312.08333333333337 149.02081658179222 L 312.5 157.9847523749963 L 312.9166666666667 166.82360999434172 L 313.3333333333333 160.81985764912594 L 313.75 154.5242562315733 L 314.16666666666663 146.8521992912237 L 314.58333333333337 140.01459245361687 L 315.0 137.5547217010632 L 315.4166666666667 130.13341671878257 L 315.8333333333333 129.63310402334793 L 316.25 128.71586408171777 L 316.66666666666663 131.17573483427145 L 317.08333333333337 135.38670002084638 L 317.5 133.96914738378155 L 317.9166666666667 125.67229518449032 L 318.3333333333333 128.6741713570982 L 318.75 124.50489889514282 L 319.16666666666663 117.16697936210133 L 319.58333333333337 117.0002084636231 L 320.0 121.04440275171986 L 320.4166666666667 114.12341046487387 L 320.8333333333333 105.15947467166984 L 321.25 97.2378569939546 L 321.66666666666663 95.44506983531376 L 322.08333333333337 99.78111319574737 L 322.5 106.74379820721285 L 322.91666666666663 113.83156139253697 L 323.3333333333333 121.75317907025224 L 323.75 128.67417135709815 L 324.16666666666663 121.37794454867627 L 324.58333333333337 114.7071086095476 L 325.0 112.24723785699396 L 325.41666666666663 114.74880133416715 L 325.8333333333333 115.58265582655827 L 326.25 123.37919533041483 L 326.66666666666663 126.38107150302275 L 327.08333333333337 134.26099645611845 L 327.5 140.1396706274755 L 327.91666666666663 135.55347091932458 L 328.3333333333333 131.50927663122786 L 328.75 139.59766520742133 L 329.16666666666663 140.5149051490515 L 329.58333333333337 140.5149051490515 L 330.00000000000006 146.06003752345214 L 330.41666666666663 148.2697519282885 L 330.8333333333333 147.76943923285387 L 331.25 145.26787575568062 L 331.6666666666667 143.80863039399628 L 332.08333333333337 142.39107775693142 L 332.49999999999994 149.27037731915783 L 332.91666666666663 150.9797790285595 L 333.33333333333337 150.9797790285595 L 333.75 142.47446320617053 L 334.1666666666667 134.67792370231396 L 334.58333333333337 126.88138419845737 L 335.0 119.08484469460078 L 335.41666666666663 112.99770690014591 L 335.83333333333337 108.91181988742963 L 336.25 108.91181988742966 L 336.6666666666667 108.91181988742966 L 337.08333333333337 102.61621846987703 L 337.5 102.616218469877 L 337.91666666666663 102.61621846987703 L 338.33333333333337 97.07108609547635 L 338.75 88.7325411715656 L 339.1666666666667 81.35292891390455 L 339.58333333333337 74.97394204711279 L 340.0 68.51156973108196 L 340.41666666666663 62.09089013967066 L 340.83333333333337 54.29435063581405 L 341.25 51.66770898478219 L 341.6666666666667 51.66770898478219 L 342.0833333333333 57.17114863456325 L 342.5 65.6764644569523 L 342.91666666666663 69.84573691890768 L 343.33333333333337 74.01500938086305 L 343.75 79.10152178444861 L 344.1666666666667 85.56389410047947 L 344.5833333333333 84.68834688346885 L 345.0 91.56764644569523 L 345.41666666666663 90.6920992286846 L 345.83333333333337 93.15196998123831 L 346.25 94.02751719824893 L 346.6666666666667 94.94475713987912 L 347.0833333333333 101.86574942672506 L 347.5 103.65853658536591 L 347.91666666666663 105.4513237440067 L 348.33333333333337 105.4513237440067 L 348.75 106.36856368563687 L 349.1666666666667 114.99895768188453 L 349.5833333333333 120.87763185324167 L 350.0 119.96039191161148 L 350.41666666666663 123.21242443193665 L 350.83333333333337 123.62935167813218 L 351.25 127.08984782155514 L 351.6666666666667 129.50802584948931 L 352.0833333333333 131.21742755889102 L 352.5 123.8795080258495 L 352.91666666666663 123.8795080258495 L 353.33333333333337 116.12466124661249 L 353.75 117.79237023139464 L 354.16666666666663 117.70898478215551 L 354.5833333333333 117.70898478215551 L 355.0 119.4183864915572 L 355.41666666666663 115.83281217427559 L 355.83333333333337 119.79362101313318 L 356.25 122.12841359182825 L 356.66666666666663 129.04940587867418 L 357.0833333333333 136.1788617886179 L 357.5 135.47008547008548 L 357.91666666666663 138.93058161350842 L 358.33333333333337 148.14467375442985 L 358.75 148.2697519282885 L 359.16666666666663 148.5616010006254 L 359.5833333333333 149.5622263914947 L 360.0 152.1054825932875 L 360.41666666666663 144.43402126328957 L 360.83333333333337 144.43402126328954 L 361.25000000000006 144.43402126328954 L 361.66666666666663 144.43402126328954 L 362.0833333333333 142.7663122785074 L 362.5 141.2653741922035 L 362.9166666666667 140.38982697519285 L 363.33333333333337 139.5559724828018 L 363.74999999999994 138.01334167187827 L 364.16666666666663 133.17698561601003 L 364.58333333333337 129.96664582030436 L 365.0 129.25786950177195 L 365.4166666666667 129.9249530956848 L 365.83333333333337 122.92057535959975 L 366.25 114.49864498644988 L 366.66666666666663 106.20179278715865 L 367.08333333333337 98.23848238482387 L 367.5 89.94163018553265 L 367.9166666666667 89.10777569314159 L 368.33333333333337 87.89868667917453 L 368.75 95.4033771106942 L 369.16666666666663 96.27892432770484 L 369.58333333333337 97.15447154471548 L 370.0 98.03001876172613 L 370.4166666666667 98.90556597873676 L 370.83333333333337 98.90556597873676 L 371.25 103.90869293308323 L 371.66666666666663 108.6199708150928 L 372.08333333333337 113.33124869710237 L 372.5 120.3356264331874 L 372.9166666666667 128.79924953095687 L 373.3333333333333 130.71711486345637 L 373.75 130.6754221388368 L 374.16666666666663 137.8465707734001 L 374.58333333333337 140.97352511986662 L 375.0 141.84907233687724 L 375.4166666666667 149.60391911611427 L 375.8333333333333 153.60642067959142 L 376.25 146.72712111736504 L 376.66666666666663 139.72274338127997 L 377.08333333333337 136.22055451323746 L 377.5 142.3076923076923 L 377.9166666666667 147.31081926203876 L 378.3333333333333 148.93683552220136 L 378.75 148.9368355222014 L 379.16666666666663 149.77069001459245 L 379.58333333333337 144.76756306024598 L 380.0 139.18073796122576 L 380.4166666666667 134.4694600792162 L 380.8333333333333 131.9262038774234 L 381.25 127.67354596622889 L 381.66666666666663 126.17260787992497 L 382.08333333333337 126.75630602459871 L 382.5 124.71336251824057 L 382.9166666666667 128.79924953095687 L 383.3333333333333 130.3835730664999 L 383.75 124.33812799666457 L 384.16666666666663 126.88138419845741 L 384.58333333333337 133.5939128622056 L 385.0 140.01459245361687 L 385.41666666666663 143.47508859703984 L 385.8333333333333 137.38795080258495 L 386.25 140.09797790285597 L 386.66666666666663 137.59641442568275 L 387.08333333333337 139.18073796122576 L 387.5 144.60079216176774 L 387.91666666666663 151.8136335209506 L 388.3333333333333 154.31519699812387 L 388.75 157.3170731707317 L 389.16666666666663 157.44215134459037 L 389.58333333333337 160.11048572024183 L 390.0 160.1104857202418 L 390.41666666666663 154.98228059203666 L 390.8333333333333 155.0239733166562 L 391.25 153.18949343339585 L 391.66666666666663 156.10798415676462 L 392.08333333333337 161.1111111111111 L 392.50000000000006 162.1951219512195 L 392.91666666666663 158.4844694600792 L 393.3333333333333 159.9854075463832 L 393.75 159.73525119866582 L 394.1666666666667 165.94746716697935 L 394.58333333333337 165.4471544715447 L 394.99999999999994 173.53554304773814 L 395.41666666666663 173.32707942464037 L 395.83333333333337 173.91077756931418 L 396.25 174.4110902647488 L 396.6666666666667 179.37252449447573 L 397.08333333333337 182.9164060871378 L 397.5 184.9931008467594 L 397.91666666666663 184.7310322920079 L 398.33333333333337 184.2624854819977 L 398.75 187.38943982846422 L 399.1666666666667 190.09946692873524 L 399.58333333333337 190.1828523779743 L 400.0 187.18097620536645 L 400.41666666666663 187.6812889008011 L 400.83333333333337 187.09759075612732 L 401.25 192.01733226123469 L 401.6666666666667 191.76717591351735 L 402.08333333333337 191.85056136275648 L 402.5 191.6420977396587 L 402.91666666666663 191.43363411656097 L 403.33333333333337 191.14178504422406 L 403.75 194.1019684922124 L 404.1666666666667 192.5176449566694 L 404.5833333333333 192.35087405819112 L 405.0 187.72298162542066 L 405.41666666666663 186.26373626373626 L 405.83333333333337 186.93876132900522 L 406.25 183.8654119141924 L 406.6666666666667 180.0813008130081 L 407.0833333333333 181.49885345007294 L 407.5 181.58223889931207 L 407.91666666666663 184.83427141963725 L 408.33333333333337 191.0047946633312 L 408.75 192.67250364811338 L 409.1666666666667 194.25682718365644 L 409.5833333333333 194.1317490097978 L 410.0 192.67250364811338 L 410.41666666666663 192.33896185115697 L 410.83333333333337 193.50635814050446 L 411.25 192.04711277882006 L 411.6666666666667 192.96435272045028 L 412.0833333333333 188.6283093600167 L 412.5 186.29351678132164 L 412.91666666666663 186.08505315822387 L 413.33333333333337 190.96310193871167 L 413.75 190.71294559099437 L 414.1666666666667 186.46028767979988 L 414.5833333333333 183.75026057952888 L 415.0 181.37377527621427 L 415.41666666666663 172.7016885553471 L 415.83333333333337 163.8211382113821 L 416.25 155.10735876589536 L 416.66666666666663 146.5603502188868 L 417.0833333333333 137.67979987492186 L 417.5 137.05440900562854 L 417.91666666666663 136.262247237857 L 418.33333333333337 136.88763810715034 L 418.75 136.637481759433 L 419.16666666666663 128.5907859078591 L 419.5833333333333 123.04565353345842 L 420.0 114.33187408797167 L 420.41666666666663 113.45632687096105 L 420.83333333333337 111.37169063998336 L 421.25 106.5353345841151 L 421.66666666666663 104.6591619762352 L 422.0833333333333 98.03001876172613 L 422.5 95.82030435688978 L 422.91666666666663 95.82030435688978 L 423.33333333333337 96.65415884928083 L 423.75000000000006 103.61684386074633 L 424.16666666666663 107.7027308734626 L 424.5833333333333 108.53658536585365 L 425.0 116.8334375651449 L 425.4166666666667 125.08859703981656 L 425.83333333333337 123.50427350427351 L 426.24999999999994 119.75192828851365 L 426.66666666666663 117.37544298519906 L 427.08333333333337 115.70773400041692 L 427.5 121.83656451949135 L 427.9166666666667 126.71461329997912 L 428.33333333333337 134.46946007921616 L 428.75 136.8876381071503 L 429.16666666666663 134.26099645611842 L 429.58333333333337 139.76443610589956 L 430.0 142.39107775693142 L 430.4166666666667 149.97915363769022 L 430.83333333333337 157.52553679382947 L 431.25 159.15155305399207 L 431.66666666666663 158.317698561601 L 432.08333333333337 152.27225349176567 L 432.5 149.1036064206796 L 432.9166666666667 148.2697519282885 L 433.33333333333337 139.9728997289973 L 433.75 131.71774025432563 L 434.16666666666663 125.29706066291435 L 434.58333333333337 122.04502814258915 L 435.0 116.66666666666667 L 435.4166666666667 111.62184698770065 L 435.8333333333333 105.49301646862625 L 436.25 99.73942047112783 L 436.66666666666663 91.98457369189082 L 437.08333333333337 90.44194288096732 L 437.5 96.02876797998753 L 437.9166666666667 92.6933500104232 L 438.3333333333333 88.89931207004378 L 438.75 82.22847613091517 L 439.16666666666663 74.6820929747759 L 439.58333333333337 78.64290181363353 L 440.0 83.0206378986867 L 440.4166666666667 84.68834688346885 L 440.8333333333333 84.68834688346885 L 441.25 88.690848446946 L 441.66666666666663 94.86137169063997 L 442.08333333333337 94.86137169063997 L 442.5 94.86137169063997 L 442.9166666666667 93.9441317490098 L 443.3333333333333 94.86137169063997 L 443.75 94.86137169064001 L 444.16666666666663 94.86137169064001 L 444.58333333333337 100.53158223889935 L 445.0 100.53158223889935 L 445.4166666666667 100.53158223889935 L 445.8333333333333 94.94475713987912 L 446.25 89.35793204085888 L 446.66666666666663 84.68834688346887 L 447.08333333333337 84.68834688346887 L 447.5 83.81279966645825 L 447.91666666666663 77.39212007504695 L 448.3333333333333 73.01438398999376 L 448.75 70.42943506358141 L 449.16666666666663 69.51219512195127 L 449.58333333333337 66.3852407754847 L 450.0 61.090264748801374 L 450.41666666666663 61.090264748801324 L 450.8333333333333 60.17302480717113 L 451.25 61.090264748801374 L 451.66666666666663 61.96581196581201 L 452.08333333333337 61.048572024181794 L 452.5 61.92411924119243 L 452.91666666666663 55.336668751302945 L 453.3333333333333 54.41942880967274 L 453.75 52.6266416510319 L 454.16666666666663 54.41942880967274 L 454.58333333333337 62.79966645820308 L 455.00000000000006 71.72190952678757 L 455.41666666666663 71.72190952678761 L 455.8333333333333 72.55576401917867 L 456.25 77.35042735042734 L 456.6666666666667 78.18428184281842 L 457.08333333333337 84.5632687096102 L 457.49999999999994 84.5632687096102 L 457.91666666666663 89.02439024390245 L 458.33333333333337 92.73504273504274 L 458.75 91.81780279341251 L 459.1666666666667 91.81780279341251 L 459.58333333333337 94.23598082134667 L 460.0 94.19428809672712 L 460.41666666666663 95.11152803835729 L 460.83333333333337 94.23598082134667 L 461.25 95.15322076297686 L 461.6666666666667 96.07046070460703 L 462.08333333333337 96.98770064623724 L 462.5 96.11215342922661 L 462.91666666666663 88.64915572232646 L 463.33333333333337 79.72691265374195 L 463.75 79.72691265374195 L 464.1666666666667 78.89305816135084 L 464.58333333333337 74.97394204711283 L 465.0 75.01563477173238 L 465.41666666666663 70.42943506358145 L 465.83333333333337 77.64227642276427 L 466.25 78.72628726287266 L 466.6666666666667 81.72816343548055 L 467.0833333333333 89.06608296852204 L 467.5 96.4040025015635 L 467.91666666666663 98.19678966020433 L 468.33333333333337 101.07358765895356 L 468.75 105.95163643944136 L 469.1666666666667 112.12215968313531 L 469.5833333333333 118.45945382530752 L 470.0 126.46445695226186 L 470.41666666666663 133.51052741296644 L 470.83333333333337 138.59703981655204 L 471.25 144.767563060246 L 471.6666666666667 143.85032311861582 L 472.0833333333333 149.93746091307065 L 472.5 158.33556687215224 L 472.91666666666663 164.85352948767581 L 473.33333333333337 170.7322036590329 L 473.75 175.8187160626185 L 474.1666666666667 168.6058747034357 L 474.5833333333333 161.2679551703942 L 475.0 152.76263934800517 L 475.41666666666663 145.42471981496374 L 475.83333333333337 138.08680028192225 L 476.25 133.87583509534733 L 476.6666666666667 137.1278676156725 L 477.0833333333333 132.24981883518467 L 477.5 126.0792955914907 L 477.91666666666663 119.74200144931855 L 478.33333333333337 111.73699832236417 L 478.75 104.69092786165959 L 479.16666666666663 99.60441545807402 L 479.5833333333333 93.43389221438005 L 480.0 93.43389221438005 L 480.41666666666663 87.34675441992516 L 480.83333333333337 78.9486484608436 L 481.25 71.55513862830938 L 481.66666666666663 65.6764644569523 L 482.0833333333333 59.71440483635606 L 482.5 60.63164477798626 L 482.91666666666663 61.54888471961644 L 483.33333333333337 62.46612466124664 L 483.75 63.383364602876796 L 484.16666666666663 63.38336460287684 L 484.5833333333333 62.46612466124664 L 485.0 55.50343964978113 L 485.41666666666663 54.58619970815097 L 485.83333333333337 53.66895976652077 L 486.25000000000006 52.7517198248906 L 486.66666666666663 51.83447988326038 L 487.0833333333333 50.9172399416302 L 487.5 50.00000000000004 L 487.9166666666667 50.0 L 488.33333333333337 50.91723994163017 L 488.74999999999994 52.626641651031875 L 489.16666666666663 57.504690431519705 L 489.58333333333337 62.716281008963975 L 490.0 61.84073379195334 L 490.4166666666667 61.84073379195327 L 490.83333333333337 62.71628100896394 L 491.25 61.79904106733373 L 491.66666666666663 60.88180112570358 L 492.08333333333337 59.96456118407339 L 492.5 60.88180112570358 L 492.9166666666667 61.79904106733373 L 493.33333333333337 62.67458828434438 L 493.75 63.59182822597455 L 494.16666666666663 64.50906816760475 L 494.58333333333337 66.3018553262456 L 495.0 67.21909526787574 L 495.4166666666667 68.13633520950593 L 495.83333333333337 69.05357515113613 L 496.25 68.13633520950594 L 496.66666666666663 68.13633520950593 L 497.08333333333337 66.42693350010423 L 497.5 61.54888471961644 L 497.9166666666667 56.33729414217221 L 498.3333333333333 56.33729414217221 L 498.75 62.09089013967066 L 499.16666666666663 68.38649155722327 L 499.58333333333337 71.76360225140712 L 500.0 75.80779653950387 L 500.4166666666667 79.81029810298105 L 500.8333333333333 82.89555972482805 L 501.25 85.35543047738172 L 501.66666666666663 84.47988326037108 L 502.08333333333337 92.19303731498856 L 502.5 93.06858453199918 L 502.9166666666667 93.90243902439026 L 503.3333333333333 102.49114029601836 L 503.75 102.49114029601836 L 504.16666666666663 101.57390035438816 L 504.58333333333337 109.32874713362519 L 505.0 114.91557223264543 L 505.4166666666667 115.79111944965607 L 505.8333333333333 118.25099020220975 L 506.25 118.25099020220975 L 506.66666666666663 118.25099020220975 L 507.08333333333337 112.49739420471131 L 507.5 104.40900562851786 L 507.9166666666667 101.03189493433399 L 508.3333333333333 96.98770064623727 L 508.75 92.98519908276006 L 509.16666666666663 88.9826975192829 L 509.58333333333337 93.90243902439026 L 510.0 101.74067125286639 L 510.41666666666663 101.15697310819263 L 510.8333333333333 103.28330206378986 L 511.25 103.24160933917031 L 511.66666666666663 97.15447154471546 L 512.0833333333334 98.03001876172608 L 512.5 101.36543673129039 L 512.9166666666666 101.74067125286639 L 513.3333333333333 101.86574942672505 L 513.75 101.82405670210548 L 514.1666666666666 101.07358765895353 L 514.5833333333334 107.07734000416926 L 515.0 109.53721075672296 L 515.4166666666666 115.0823431311236 L 515.8333333333333 121.66979362101314 L 516.25 124.2547425474255 L 516.6666666666667 127.63185324160938 L 517.0833333333333 128.54909318323953 L 517.5 129.46633312486972 L 517.9166666666666 128.50740045862 L 518.3333333333333 119.75192828851365 L 518.75 111.70523243693975 L 519.1666666666667 107.78611632270172 L 519.5833333333334 105.20116739628935 L 520.0 101.78236397748594 L 520.4166666666667 100.90681676047531 L 520.8333333333333 98.48863873254119 L 521.25 97.23785699395458 L 521.6666666666667 98.32186783406299 L 522.0833333333334 105.15947467166977 L 522.5 111.20491974150511 L 522.9166666666667 111.45507608922243 L 523.3333333333333 114.206795914113 L 523.75 117.00020846362308 L 524.1666666666667 117.75067750677506 L 524.5833333333334 123.21242443193663 L 525.0 127.79862414008755 L 525.4166666666667 134.8863873254117 L 525.8333333333333 142.2243068584532 L 526.25 136.67917448405254 L 526.6666666666667 139.3058161350844 L 527.0833333333334 141.93245778611632 L 527.5 141.93245778611632 L 527.9166666666667 150.93808630393994 L 528.3333333333333 158.52616218469876 L 528.75 158.52616218469876 L 529.1666666666667 165.94746716697938 L 529.5833333333333 168.24056702105483" style="opacity:0.75;stroke:rgb(98.8%,55.3%,38.4%);stroke-opacity:1.0;stroke-width:2.0" /></g></g></g><g class="toyplot-coordinates-Axis" id="t960c00dd708b4b468fa94d29249f456c" transform="translate(50.0,250.0)translate(0,10.0)"><line style="" x1="0" x2="479.5833333333333" y1="0" y2="0" /><g><line style="" x1="0.0" x2="0.0" y1="0" y2="-5" /><line style="" x1="166.66666666666666" x2="166.66666666666666" y1="0" y2="-5" /><line style="" x1="333.3333333333333" x2="333.3333333333333" y1="0" y2="-5" /><line style="" x1="500.0" x2="500.0" y1="0" y2="-5" /></g><g><g transform="translate(0.0,6)"><text style="fill:rgb(16.1%,15.3%,14.1%);fill-opacity:1.0;font-family:helvetica;font-size:10.0px;font-weight:normal;stroke:none;vertical-align:baseline;white-space:pre" x="-2.78" y="8.555">0</text></g><g transform="translate(166.66666666666666,6)"><text style="fill:rgb(16.1%,15.3%,14.1%);fill-opacity:1.0;font-family:helvetica;font-size:10.0px;font-weight:normal;stroke:none;vertical-align:baseline;white-space:pre" x="-8.34" y="8.555">400</text></g><g transform="translate(333.3333333333333,6)"><text style="fill:rgb(16.1%,15.3%,14.1%);fill-opacity:1.0;font-family:helvetica;font-size:10.0px;font-weight:normal;stroke:none;vertical-align:baseline;white-space:pre" x="-8.34" y="8.555">800</text></g><g transform="translate(500.0,6)"><text style="fill:rgb(16.1%,15.3%,14.1%);fill-opacity:1.0;font-family:helvetica;font-size:10.0px;font-weight:normal;stroke:none;vertical-align:baseline;white-space:pre" x="-11.12" y="8.555">1200</text></g></g><g transform="translate(250.0,22)"><text style="fill:rgb(16.1%,15.3%,14.1%);fill-opacity:1.0;font-family:helvetica;font-size:12.0px;font-weight:bold;stroke:none;vertical-align:baseline;white-space:pre" x="-91.01400000000001" y="10.265999999999998">Chromosome 1 window (200Kb)</text></g><g class="toyplot-coordinates-Axis-coordinates" style="visibility:hidden" transform=""><line style="stroke:rgb(43.9%,50.2%,56.5%);stroke-opacity:1.0;stroke-width:1.0" x1="0" x2="0" y1="-3.0" y2="4.5" /><text style="alignment-baseline:alphabetic;fill:rgb(43.9%,50.2%,56.5%);fill-opacity:1.0;font-size:10px;font-weight:normal;stroke:none;text-anchor:middle" x="0" y="-6" /></g></g><g class="toyplot-coordinates-Axis" id="t9c32f4195991474282c76dec39d86009" transform="translate(50.0,250.0)rotate(-90.0)translate(0,-10.0)"><line style="" x1="34.959945203847646" x2="200.0" y1="0" y2="0" /><g><line style="" x1="0.0" x2="0.0" y1="0" y2="5" /><line style="" x1="63.289555972482816" x2="63.289555972482816" y1="0" y2="5" /><line style="" x1="126.57911194496563" x2="126.57911194496563" y1="0" y2="5" /><line style="" x1="189.86866791744842" x2="189.86866791744842" y1="0" y2="5" /></g><g><g transform="translate(0.0,-6)"><text style="fill:rgb(16.1%,15.3%,14.1%);fill-opacity:1.0;font-family:helvetica;font-size:10.0px;font-weight:normal;stroke:none;vertical-align:baseline;white-space:pre" x="-6.95" y="-4.440892098500626e-16">0.0</text></g><g transform="translate(63.289555972482816,-6)"><text style="fill:rgb(16.1%,15.3%,14.1%);fill-opacity:1.0;font-family:helvetica;font-size:10.0px;font-weight:normal;stroke:none;vertical-align:baseline;white-space:pre" x="-6.95" y="-4.440892098500626e-16">0.3</text></g><g transform="translate(126.57911194496563,-6)"><text style="fill:rgb(16.1%,15.3%,14.1%);fill-opacity:1.0;font-family:helvetica;font-size:10.0px;font-weight:normal;stroke:none;vertical-align:baseline;white-space:pre" x="-6.95" y="-4.440892098500626e-16">0.6</text></g><g transform="translate(189.86866791744842,-6)"><text style="fill:rgb(16.1%,15.3%,14.1%);fill-opacity:1.0;font-family:helvetica;font-size:10.0px;font-weight:normal;stroke:none;vertical-align:baseline;white-space:pre" x="-6.95" y="-4.440892098500626e-16">0.9</text></g></g><g transform="translate(100.0,-22)"><text style="fill:rgb(16.1%,15.3%,14.1%);fill-opacity:1.0;font-family:helvetica;font-size:12.0px;font-weight:bold;stroke:none;vertical-align:baseline;white-space:pre" x="-37.008" y="0.0">Clade weight</text></g><g class="toyplot-coordinates-Axis-coordinates" style="visibility:hidden" transform=""><line style="stroke:rgb(43.9%,50.2%,56.5%);stroke-opacity:1.0;stroke-width:1.0" x1="0" x2="0" y1="3.0" y2="-4.5" /><text style="alignment-baseline:hanging;fill:rgb(43.9%,50.2%,56.5%);fill-opacity:1.0;font-size:10px;font-weight:normal;stroke:none;text-anchor:middle" x="0" y="6" /></g></g></g></svg>