<svg class="toyplot-canvas-Canvas" xmlns:toyplot="http://www.sandia.gov/toyplot" xmlns:xlink="http://www.w3.org/1999/xlink" xmlns="http://www.w3.org/2000/svg" width="200.0px" height="350.0px" viewBox="0 0 200.0 350.0" preserveAspectRatio="xMidYMid meet" style="background-color:transparent;border-color:#292724;border-style:none;border-width:1.0;fill:rgb(16.1%,15.3%,14.1%);fill-opacity:1.0;font-family:Helvetica;font-size:12px;opacity:1.0;stroke:rgb(16.1%,15.3%,14.1%);stroke-opacity:1.0;stroke-width:1.0" id="t0b9600ccb84c4615974e0186dee7165a"><g class="toyplot-coordinates-Cartesian" id="t010c91c86a984df4b3de1be8fa2ea437"><clipPath id="td5e6d9f626e940ae807d926ab320d734"><rect x="30.0" y="30.0" width="140.0" height="290.0" /></clipPath><g clip-path="url(#td5e6d9f626e940ae807d926ab320d734)"><g class="toytree-mark-Toytree" id="t7f4c542e023e4d0a9b148ec2a12a34a2"><g class="toytree-Edges" style="fill:none;stroke:rgb(14.9%,14.9%,14.9%);stroke-linecap:round;stroke-opacity:1;stroke-width:2"><path d="M 87.2 51.7 L 69.1 51.7 L 69.1 206.3" id="48,47" /><path d="M 87.2 51.7 L 105.3 51.7 L 105.3 123.9" id="48,46" /><path d="M 69.1 206.3 L 62.6 206.3 L 62.6 234.8" id="47,45" /><path d="M 69.1 206.3 L 75.7 206.3 L 75.7 206.9" id="47,44" /><path d="M 105.3 123.9 L 92.9 123.9 L 92.9 190.9" id="46,43" /><path d="M 105.3 123.9 L 117.6 123.9 L 117.6 207.6" id="46,42" /><path d="M 62.6 234.8 L 65.1 234.8 L 65.1 260.7" id="45,41" /><path d="M 75.7 206.9 L 71.7 206.9 L 71.7 256.6" id="44,40" /><path d="M 75.7 206.9 L 79.6 206.9 L 79.6 242.0" id="44,39" /><path d="M 92.9 190.9 L 95.8 190.9 L 95.8 247.7" id="43,38" /><path d="M 117.6 207.6 L 106.4 207.6 L 106.4 214.0" id="42,37" /><path d="M 117.6 207.6 L 128.7 207.6 L 128.7 220.4" id="42,36" /><path d="M 79.6 242.0 L 82.5 242.0 L 82.5 247.5" id="39,35" /><path d="M 95.8 247.7 L 98.3 247.7 L 98.3 258.8" id="38,34" /><path d="M 106.4 214.0 L 109.6 214.0 L 109.6 235.3" id="37,33" /><path d="M 128.7 220.4 L 122.5 220.4 L 122.5 240.1" id="36,32" /><path d="M 128.7 220.4 L 134.9 220.4 L 134.9 245.9" id="36,31" /><path d="M 82.5 247.5 L 85.0 247.5 L 85.0 258.6" id="35,30" /><path d="M 109.6 235.3 L 112.5 235.3 L 112.5 250.1" id="33,29" /><path d="M 122.5 240.1 L 125.0 240.1 L 125.0 246.1" id="32,28" /><path d="M 134.9 245.9 L 131.6 245.9 L 131.6 259.4" id="31,27" /><path d="M 134.9 245.9 L 138.3 245.9 L 138.3 251.6" id="31,26" /><path d="M 112.5 250.1 L 115.0 250.1 L 115.0 261.1" id="29,25" /><path d="M 62.6 234.8 L 60.1 234.8 L 60.1 261.9" id="45,24" /><path d="M 65.1 260.7 L 63.4 260.7 L 63.4 261.9" id="41,23" /><path d="M 65.1 260.7 L 66.7 260.7 L 66.7 261.9" id="41,22" /><path d="M 71.7 256.6 L 70.0 256.6 L 70.0 261.9" id="40,21" /><path d="M 71.7 256.6 L 73.4 256.6 L 73.4 261.9" id="40,20" /><path d="M 79.6 242.0 L 76.7 242.0 L 76.7 261.9" id="39,19" /><path d="M 82.5 247.5 L 80.0 247.5 L 80.0 261.9" id="35,18" /><path d="M 85.0 258.6 L 83.4 258.6 L 83.4 261.9" id="30,17" /><path d="M 85.0 258.6 L 86.7 258.6 L 86.7 261.9" id="30,16" /><path d="M 92.9 190.9 L 90.0 190.9 L 90.0 261.9" id="43,15" /><path d="M 95.8 247.7 L 93.3 247.7 L 93.3 261.9" id="38,14" /><path d="M 98.3 258.8 L 96.7 258.8 L 96.7 261.9" id="34,13" /><path d="M 98.3 258.8 L 100.0 258.8 L 100.0 261.9" id="34,12" /><path d="M 106.4 214.0 L 103.3 214.0 L 103.3 261.9" id="37,11" /><path d="M 109.6 235.3 L 106.7 235.3 L 106.7 261.9" id="33,10" /><path d="M 112.5 250.1 L 110.0 250.1 L 110.0 261.9" id="29,9" /><path d="M 115.0 261.1 L 113.3 261.1 L 113.3 261.9" id="25,8" /><path d="M 115.0 261.1 L 116.6 261.1 L 116.6 261.9" id="25,7" /><path d="M 122.5 240.1 L 120.0 240.1 L 120.0 261.9" id="32,6" /><path d="M 125.0 246.1 L 123.3 246.1 L 123.3 261.9" id="28,5" /><path d="M 125.0 246.1 L 126.6 246.1 L 126.6 261.9" id="28,4" /><path d="M 131.6 259.4 L 130.0 259.4 L 130.0 261.9" id="27,3" /><path d="M 131.6 259.4 L 133.3 259.4 L 133.3 261.9" id="27,2" /><path d="M 138.3 251.6 L 136.6 251.6 L 136.6 261.9" id="26,1" /><path d="M 138.3 251.6 L 139.9 251.6 L 139.9 261.9" id="26,0" /></g><g class="toytree-TipLabels" style="fill:rgb(14.9%,14.9%,14.9%);fill-opacity:1.0;font-family:helvetica;font-size:11px;font-weight:normal;stroke:none;white-space:pre"><g transform="translate(139.94,261.88)rotate(-90)"><text x="-24.78" y="2.81" style="">r0</text></g><g transform="translate(136.61,261.88)rotate(-90)"><text x="-24.78" y="2.81" style="">r1</text></g><g transform="translate(133.28,261.88)rotate(-90)"><text x="-24.78" y="2.81" style="">r2</text></g><g transform="translate(129.95,261.88)rotate(-90)"><text x="-24.78" y="2.81" style="">r3</text></g><g transform="translate(126.62,261.88)rotate(-90)"><text x="-24.78" y="2.81" style="">r4</text></g><g transform="translate(123.30,261.88)rotate(-90)"><text x="-24.78" y="2.81" style="">r5</text></g><g transform="translate(119.97,261.88)rotate(-90)"><text x="-24.78" y="2.81" style="">r6</text></g><g transform="translate(116.64,261.88)rotate(-90)"><text x="-24.78" y="2.81" style="">r7</text></g><g transform="translate(113.31,261.88)rotate(-90)"><text x="-24.78" y="2.81" style="">r8</text></g><g transform="translate(109.98,261.88)rotate(-90)"><text x="-24.78" y="2.81" style="">r9</text></g><g transform="translate(106.66,261.88)rotate(-90)"><text x="-30.90" y="2.81" style="">r10</text></g><g transform="translate(103.33,261.88)rotate(-90)"><text x="-30.90" y="2.81" style="">r11</text></g><g transform="translate(100.00,261.88)rotate(-90)"><text x="-30.90" y="2.81" style="">r12</text></g><g transform="translate(96.67,261.88)rotate(-90)"><text x="-30.90" y="2.81" style="">r13</text></g><g transform="translate(93.34,261.88)rotate(-90)"><text x="-30.90" y="2.81" style="">r14</text></g><g transform="translate(90.02,261.88)rotate(-90)"><text x="-30.90" y="2.81" style="">r15</text></g><g transform="translate(86.69,261.88)rotate(-90)"><text x="-30.90" y="2.81" style="">r16</text></g><g transform="translate(83.36,261.88)rotate(-90)"><text x="-30.90" y="2.81" style="">r17</text></g><g transform="translate(80.03,261.88)rotate(-90)"><text x="-30.90" y="2.81" style="">r18</text></g><g transform="translate(76.70,261.88)rotate(-90)"><text x="-30.90" y="2.81" style="">r19</text></g><g transform="translate(73.38,261.88)rotate(-90)"><text x="-30.90" y="2.81" style="">r20</text></g><g transform="translate(70.05,261.88)rotate(-90)"><text x="-30.90" y="2.81" style="">r21</text></g><g transform="translate(66.72,261.88)rotate(-90)"><text x="-30.90" y="2.81" style="">r22</text></g><g transform="translate(63.39,261.88)rotate(-90)"><text x="-30.90" y="2.81" style="">r23</text></g><g transform="translate(60.06,261.88)rotate(-90)"><text x="-30.90" y="2.81" style="">r24</text></g></g></g></g></g></svg>