<?xml version="1.0" encoding="UTF-8" standalone="no"?>
<!-- Created with Inkscape (http://www.inkscape.org/) -->

<svg
   width="500"
   height="250"
   viewBox="0 0 132.29167 66.145833"
   version="1.1"
   id="svg5"
   inkscape:version="1.1 (1:1.1+202105261517+ce6663b3b7)"
   sodipodi:docname="wo_fossils.svg"
   xmlns:inkscape="http://www.inkscape.org/namespaces/inkscape"
   xmlns:sodipodi="http://sodipodi.sourceforge.net/DTD/sodipodi-0.dtd"
   xmlns="http://www.w3.org/2000/svg"
   xmlns:svg="http://www.w3.org/2000/svg">
  <sodipodi:namedview
     id="namedview7"
     pagecolor="#505050"
     bordercolor="#ffffff"
     borderopacity="1"
     inkscape:pageshadow="0"
     inkscape:pageopacity="0"
     inkscape:pagecheckerboard="1"
     inkscape:document-units="px"
     showgrid="true"
     inkscape:zoom="1.4125"
     inkscape:cx="294.15929"
     inkscape:cy="192.21239"
     inkscape:window-width="2048"
     inkscape:window-height="1020"
     inkscape:window-x="260"
     inkscape:window-y="150"
     inkscape:window-maximized="0"
     inkscape:current-layer="layer1"
     width="500px">
    <inkscape:grid
       type="xygrid"
       id="grid42" />
  </sodipodi:namedview>
  <defs
     id="defs2">
    <clipPath
       id="t4d1a2a7efa2248d0bcef25abe265717d">
      <rect
         x="30"
         y="30"
         width="340"
         height="340"
         id="rect3987" />
    </clipPath>
  </defs>
  <g
     inkscape:label="Layer 1"
     inkscape:groupmode="layer"
     id="layer1">
    <path
       style="fill:none;stroke:#ffffff;stroke-width:0.377567;stroke-linecap:butt;stroke-linejoin:miter;stroke-miterlimit:4;stroke-dasharray:none;stroke-opacity:1"
       d="m 13.055786,57.049874 h 15.102695 l 5.81303,-10.068465 5.813029,10.068465 H 55.846754 L 40.744059,21.81025 H 25.641364 Z"
       id="path44" />
    <path
       style="fill:#ffffff;stroke:#ffffff;stroke-width:0.503422;stroke-linecap:butt;stroke-linejoin:miter;stroke-miterlimit:4;stroke-dasharray:2.01369, 1.00685;stroke-dashoffset:0;stroke-opacity:1"
       d="M 2.987321,46.981409 H 65.915214"
       id="path993" />
    <path
       style="fill:#00ffff;stroke:#ff00ff;stroke-width:0.503422;stroke-linecap:butt;stroke-linejoin:miter;stroke-miterlimit:4;stroke-dasharray:2.01369, 1.00685;stroke-dashoffset:0;stroke-opacity:1"
       d="M 2.987321,36.91295 H 65.915214"
       id="path1075" />
    <path
       style="fill:#00ffff;stroke:#00ffff;stroke-width:0.503422;stroke-linecap:butt;stroke-linejoin:miter;stroke-miterlimit:4;stroke-dasharray:2.01369, 1.00685;stroke-dashoffset:0;stroke-opacity:1"
       d="M 2.987321,29.361602 H 65.915214"
       id="path1077" />
    <path
       style="fill:none;stroke:#ff00ff;stroke-width:0.377567;stroke-linecap:butt;stroke-linejoin:miter;stroke-miterlimit:4;stroke-dasharray:none;stroke-opacity:1"
       d="m 16.83146,57.049874 c 0.009,-0.211414 -0.07865,-0.450983 0.02716,-0.634237 0.134473,-0.232915 0.439866,-0.31386 0.630041,-0.504035 0.304856,-0.304856 0.90835,-1.073438 1.260084,-1.386095 0.564936,-0.502166 1.505294,-0.749241 2.016136,-1.260083 0.231968,-0.231968 0.425111,-0.499883 0.630041,-0.756053 0.501576,-0.626964 0.676767,-1.284875 0.882059,-2.003402 0.04191,-0.146727 0.126587,-0.807378 0.252018,-1.008071 0.190437,-0.304703 0.721172,-0.973189 1.008066,-1.260083 0.252726,-0.252726 0.694938,-0.258163 0.882064,-0.630041 0.250528,-0.497895 0.552321,-1.018298 0.880465,-1.510512 0.510005,-0.765005 -0.36274,0.394549 0.252018,-0.630042 0.321856,-0.536429 0.994628,-0.896767 1.38609,-1.386094 0.392185,-0.490226 0.361375,-0.574164 0.882059,-1.008065 0.254981,-0.212484 0.765614,-0.471604 0.945334,-0.738439 0.378047,-0.561287 0.735456,-1.106616 1.134076,-1.638112 0.246229,-0.328301 0.616062,-0.49005 0.88206,-0.756048 0.06641,-0.06641 0.04786,-0.199921 0.126006,-0.252017 0.0699,-0.04662 0.182122,0.04662 0.252018,0 0.174744,-0.116498 0.210015,-0.378029 0.378028,-0.504036 0.391039,-0.293277 0.854713,-0.485279 1.258504,-0.754473 0.23927,-0.159513 0.353646,-0.404453 0.504036,-0.630042 -0.01327,-0.249963 0.184409,-0.05992 0.250505,-0.126011 0.02236,-0.02236 -0.02055,-0.211775 0,-0.238832 0.214777,-0.282732 0.286052,-0.161106 -0.357613,-0.522106"
       id="path1220" />
    <path
       style="fill:none;stroke:#ff00ff;stroke-width:0.377567;stroke-linecap:butt;stroke-linejoin:miter;stroke-miterlimit:4;stroke-dasharray:none;stroke-opacity:1"
       d="m 49.553962,57.049874 c 0.03563,0.17814 0.115352,0.352956 0.106837,0.534426 -0.0088,0.187635 -0.182326,-0.3296 -0.252017,-0.504035 -0.201344,-0.503978 -0.616433,-0.781264 -0.832975,-1.214362 -0.34897,-0.697963 -0.952692,-1.204719 -1.499571,-1.751598 -0.21532,-0.215319 -0.439191,-0.627592 -0.630042,-0.882059 -0.441298,-0.588397 0.122391,0.07556 -0.126011,-0.504036 -0.156088,-0.364215 -0.349531,-0.728187 -0.630042,-1.008065 -0.950447,-0.948302 -1.981416,-1.526585 -2.653774,-2.778363 -0.459555,-0.855584 -0.672172,-1.772134 -1.271461,-2.542804 -0.834549,-1.073214 -2.056464,-1.689961 -2.898196,-2.772183 -0.39003,-0.501472 -1.259113,-3.376069 -1.510521,-3.526663 -0.148568,-0.089 -0.346872,-0.05327 -0.504035,-0.126006 -1.537322,-0.711539 -2.706075,-1.646674 -3.659443,-3.061181 -0.1015,-0.283074 -0.188505,-0.571771 -0.304504,-0.849219 -0.349635,-0.836285 -0.976999,-1.955739 -1.134076,-2.898195 -0.112702,-0.67621 -0.16241,-1.369298 -0.378024,-2.016136 -0.123857,-0.371569 -0.839677,-1.300192 -0.88206,-1.512101 -0.270902,-1.354519 -0.630041,-2.733816 -0.630041,-4.131988 0,-0.289572 0.02849,0.06402 -0.11822,-0.239046 -0.159703,-0.329938 0,-1.848598 0,-2.255981 0,-0.143093 0.03201,-1.466279 -0.09812,-1.412732 -0.09671,0.03981 -0.153752,0.141804 -0.230631,0.212708"
       id="path1222" />
    <path
       style="fill:none;stroke:#00ffff;stroke-width:0.377567;stroke-linecap:butt;stroke-linejoin:miter;stroke-miterlimit:4;stroke-dasharray:none;stroke-opacity:1"
       d="m 36.968385,21.81025 c 0.199379,1.324133 0.655557,2.765568 1.529891,3.814765 0.152111,0.182536 0.397774,0.291518 0.504035,0.504035 0.30605,0.612099 0.09938,1.833643 0.372054,2.379005 0.06209,0.124161 0.794045,1.228327 0.808168,1.244272 0.149695,0.169012 0.730519,2.741194 0.937809,3.259423 0.245686,0.614216 0.647166,1.236813 0.756052,1.890125 0.130226,0.781359 0.281962,1.617158 0.38085,2.408268 0.108387,0.867109 -0.123547,1.781372 0,2.646178 0.05915,0.414009 0.300047,0.744199 0.378024,1.134072 0.227192,1.135956 0.777715,2.230928 0.885104,3.417095 0.211765,2.339072 -0.132899,4.723152 0.126011,7.053339 0.0529,0.476089 -0.116103,1.047694 0,1.512101 0.122605,0.49043 0.33909,0.886877 0.502546,1.367467 0.291822,0.857985 -0.350611,1.816675 0.370803,2.609479"
       id="path1224" />
    <path
       style="fill:none;stroke:#00ffff;stroke-width:0.377567;stroke-linecap:butt;stroke-linejoin:miter;stroke-miterlimit:4;stroke-dasharray:none;stroke-opacity:1"
       d="m 39.485502,29.361598 c 0.274313,1.349515 -0.510742,2.478549 -1.307261,3.502645 -0.45955,0.590851 -0.971514,1.142249 -1.386094,1.764118 -0.192991,0.289487 -0.07197,-0.05403 -0.378024,0.252018 -0.379646,0.379641 -0.77929,0.978284 -1.00807,1.512101 -0.222988,0.520303 -0.150162,0.873744 -0.252018,1.383017 -0.125711,0.628586 -0.495825,1.374307 -0.882054,1.890129 -0.331832,0.443163 -0.784289,0.823461 -1.131632,1.257643 -0.307596,0.384494 -0.388147,0.730919 -0.630042,1.134077 -0.417786,0.696313 -0.991484,1.336344 -1.260088,2.142147 -0.269784,0.809361 -0.461281,1.681189 -0.628434,2.51695 -0.07457,0.372859 -0.248659,0.432637 -0.378024,0.756053 -0.166848,0.417115 -0.417177,0.948654 -0.504035,1.382941 -0.02473,0.123561 0.03986,0.258482 0,0.378024 -0.04789,0.143673 -0.204127,0.234356 -0.252018,0.378024 -0.03986,0.119542 0.02473,0.254467 0,0.378029 -0.127095,0.635483 -0.429915,1.415762 -0.630041,2.016136 -0.0093,0.02787 -0.240183,0.221817 -0.25042,0.250424 -0.158709,0.443662 0.232668,-0.0029 -0.124389,0.475366 -0.186326,0.249501 -0.469111,0.488857 -0.628491,0.754493 -0.211609,0.35268 -1.582125,2.854262 -1.335225,3.163584 0.114894,0.143944 0.253853,0.266906 0.380778,0.400357"
       id="path1226" />
    <g
       class="toytree-Edges"
       style="font-size:12px;font-family:Helvetica;fill:none;fill-opacity:1;stroke:#232323;stroke-width:2;stroke-linecap:round;stroke-opacity:1"
       id="g4088"
       transform="matrix(0.16372813,0,0,0.16372813,72.616211,7.397065)">
      <g
         id="g4740">
        <path
           d="m 109.4,51.7 h -45 v 223.5"
           id="98,97"
           style="fill:none;stroke:#ffffff;stroke-width:2.69152;stroke-miterlimit:4;stroke-dasharray:none;stroke-opacity:1" />
        <path
           d="m 109.4,51.7 h 45 v 113.2"
           id="98,96"
           style="fill:none;stroke:#ffffff;stroke-width:2.69152;stroke-miterlimit:4;stroke-dasharray:none;stroke-opacity:1" />
        <path
           d="M 154.4,164.9 H 107.6 V 189"
           id="96,95"
           style="fill:none;stroke:#ffffff;stroke-width:2.69152;stroke-miterlimit:4;stroke-dasharray:none;stroke-opacity:1" />
        <path
           d="m 154.4,164.9 h 46.8 v 11.5"
           id="96,94"
           style="fill:none;stroke:#ffffff;stroke-width:2.69152;stroke-miterlimit:4;stroke-dasharray:none;stroke-opacity:1" />
        <path
           d="m 107.6,189 h -22 v 85"
           id="95,93"
           style="fill:none;stroke:#ffffff;stroke-width:2.69152;stroke-miterlimit:4;stroke-dasharray:none;stroke-opacity:1" />
        <path
           d="m 107.6,189 h 21.9 v 29.3"
           id="95,92"
           style="fill:none;stroke:#ffffff;stroke-width:2.69152;stroke-miterlimit:4;stroke-dasharray:none;stroke-opacity:1" />
        <path
           d="M 201.2,176.4 H 184.5 V 192"
           id="94,91"
           style="fill:none;stroke:#ffffff;stroke-width:2.69152;stroke-miterlimit:4;stroke-dasharray:none;stroke-opacity:1" />
        <path
           d="m 201.2,176.4 h 16.7 v 36"
           id="94,90"
           style="fill:none;stroke:#ffffff;stroke-width:2.69152;stroke-miterlimit:4;stroke-dasharray:none;stroke-opacity:1" />
        <path
           d="m 85.6,274 h -8.4 v 15.7"
           id="93,89"
           style="fill:none;stroke:#ffffff;stroke-width:2.69152;stroke-miterlimit:4;stroke-dasharray:none;stroke-opacity:1" />
        <path
           d="m 85.6,274 h 8.5 v 24.8"
           id="93,88"
           style="fill:none;stroke:#ffffff;stroke-width:2.69152;stroke-miterlimit:4;stroke-dasharray:none;stroke-opacity:1" />
        <path
           d="m 129.5,218.3 h -17.4 v 49.9"
           id="92,87"
           style="fill:none;stroke:#ffffff;stroke-width:2.69152;stroke-miterlimit:4;stroke-dasharray:none;stroke-opacity:1" />
        <path
           d="m 129.5,218.3 h 17.4 v 64"
           id="92,86"
           style="fill:none;stroke:#ffffff;stroke-width:2.69152;stroke-miterlimit:4;stroke-dasharray:none;stroke-opacity:1" />
        <path
           d="m 184.5,192 h 4.2 v 106.2"
           id="91,85"
           style="fill:none;stroke:#ffffff;stroke-width:2.69152;stroke-miterlimit:4;stroke-dasharray:none;stroke-opacity:1" />
        <path
           d="M 217.9,212.4 H 200 v 77.5"
           id="90,84"
           style="fill:none;stroke:#ffffff;stroke-width:2.69152;stroke-miterlimit:4;stroke-dasharray:none;stroke-opacity:1" />
        <path
           d="m 217.9,212.4 h 17.9 v 31"
           id="90,83"
           style="fill:none;stroke:#ffffff;stroke-width:2.69152;stroke-miterlimit:4;stroke-dasharray:none;stroke-opacity:1" />
        <path
           d="m 77.2,289.7 h 4.2 v 11.4"
           id="89,82"
           style="fill:none;stroke:#ffffff;stroke-width:2.69152;stroke-miterlimit:4;stroke-dasharray:none;stroke-opacity:1" />
        <path
           d="m 94.1,298.8 h 4.2 v 11.3"
           id="88,81"
           style="fill:none;stroke:#ffffff;stroke-width:2.69152;stroke-miterlimit:4;stroke-dasharray:none;stroke-opacity:1" />
        <path
           d="m 112.1,268.2 h 5.3 v 26.1"
           id="87,80"
           style="fill:none;stroke:#ffffff;stroke-width:2.69152;stroke-miterlimit:4;stroke-dasharray:none;stroke-opacity:1" />
        <path
           d="m 146.9,282.3 h -9 v 6"
           id="86,79"
           style="fill:none;stroke:#ffffff;stroke-width:2.69152;stroke-miterlimit:4;stroke-dasharray:none;stroke-opacity:1" />
        <path
           d="m 146.9,282.3 h 9 v 19.3"
           id="86,78"
           style="fill:none;stroke:#ffffff;stroke-width:2.69152;stroke-miterlimit:4;stroke-dasharray:none;stroke-opacity:1" />
        <path
           d="m 235.8,243.4 h -18.1 v 16.3"
           id="83,77"
           style="fill:none;stroke:#ffffff;stroke-width:2.69152;stroke-miterlimit:4;stroke-dasharray:none;stroke-opacity:1" />
        <path
           d="M 235.8,243.4 H 254 v 12.3"
           id="83,76"
           style="fill:none;stroke:#ffffff;stroke-width:2.69152;stroke-miterlimit:4;stroke-dasharray:none;stroke-opacity:1" />
        <path
           d="m 117.4,294.3 h 4.9 v 12.3"
           id="80,75"
           style="fill:none;stroke:#ffffff;stroke-width:2.69152;stroke-miterlimit:4;stroke-dasharray:none;stroke-opacity:1" />
        <path
           d="m 155.9,301.6 h -6.7 v 8.8"
           id="78,74"
           style="fill:none;stroke:#ffffff;stroke-width:2.69152;stroke-miterlimit:4;stroke-dasharray:none;stroke-opacity:1" />
        <path
           d="m 155.9,301.6 h 6.7 v 3.7"
           id="78,73"
           style="fill:none;stroke:#ffffff;stroke-width:2.69152;stroke-miterlimit:4;stroke-dasharray:none;stroke-opacity:1" />
        <path
           d="m 217.7,259.7 h -6.4 v 42.7"
           id="77,72"
           style="fill:none;stroke:#ffffff;stroke-width:2.69152;stroke-miterlimit:4;stroke-dasharray:none;stroke-opacity:1" />
        <path
           d="m 217.7,259.7 h 6.3 v 33.7"
           id="77,71"
           style="fill:none;stroke:#ffffff;stroke-width:2.69152;stroke-miterlimit:4;stroke-dasharray:none;stroke-opacity:1" />
        <path
           d="m 254,255.7 h -13.1 v 29.6"
           id="76,70"
           style="fill:none;stroke:#ffffff;stroke-width:2.69152;stroke-miterlimit:4;stroke-dasharray:none;stroke-opacity:1" />
        <path
           d="m 254,255.7 h 13 v 8.1"
           id="76,69"
           style="fill:none;stroke:#ffffff;stroke-width:2.69152;stroke-miterlimit:4;stroke-dasharray:none;stroke-opacity:1" />
        <path
           d="m 122.3,306.6 h 4.3 v 2.3"
           id="75,68"
           style="fill:none;stroke:#ffffff;stroke-width:2.69152;stroke-miterlimit:4;stroke-dasharray:none;stroke-opacity:1" />
        <path
           d="m 162.6,305.3 h 4.9 v 5.2"
           id="73,67"
           style="fill:none;stroke:#ffffff;stroke-width:2.69152;stroke-miterlimit:4;stroke-dasharray:none;stroke-opacity:1" />
        <path
           d="m 224,293.4 h 4.2 v 2"
           id="71,66"
           style="fill:none;stroke:#ffffff;stroke-width:2.69152;stroke-miterlimit:4;stroke-dasharray:none;stroke-opacity:1" />
        <path
           d="m 240.9,285.3 h 4.3 v 24.5"
           id="70,65"
           style="fill:none;stroke:#ffffff;stroke-width:2.69152;stroke-miterlimit:4;stroke-dasharray:none;stroke-opacity:1" />
        <path
           d="M 267,263.8 H 256.5 V 310"
           id="69,64"
           style="fill:none;stroke:#ffffff;stroke-width:2.69152;stroke-miterlimit:4;stroke-dasharray:none;stroke-opacity:1" />
        <path
           d="m 267,263.8 h 10.6 v 13.9"
           id="69,63"
           style="fill:none;stroke:#ffffff;stroke-width:2.69152;stroke-miterlimit:4;stroke-dasharray:none;stroke-opacity:1" />
        <path
           d="m 167.5,310.5 h 4.3 v 0.3"
           id="67,62"
           style="fill:none;stroke:#ffffff;stroke-width:2.69152;stroke-miterlimit:4;stroke-dasharray:none;stroke-opacity:1" />
        <path
           d="m 277.6,277.7 h 12.6 v 18.7"
           id="63,61"
           style="fill:none;stroke:#ffffff;stroke-width:2.69152;stroke-miterlimit:4;stroke-dasharray:none;stroke-opacity:1" />
        <path
           d="m 290.2,296.4 h -16.8 v 6.3"
           id="61,60"
           style="fill:none;stroke:#ffffff;stroke-width:2.69152;stroke-miterlimit:4;stroke-dasharray:none;stroke-opacity:1" />
        <path
           d="M 290.2,296.4 H 307 v 1.2"
           id="61,59"
           style="fill:none;stroke:#ffffff;stroke-width:2.69152;stroke-miterlimit:4;stroke-dasharray:none;stroke-opacity:1" />
        <path
           d="m 307,297.6 h -15.9 v 1.7"
           id="59,58"
           style="fill:none;stroke:#ffffff;stroke-width:2.69152;stroke-miterlimit:4;stroke-dasharray:none;stroke-opacity:1" />
        <path
           d="m 307,297.6 h 15.8 v 0.8"
           id="59,57"
           style="fill:none;stroke:#ffffff;stroke-width:2.69152;stroke-miterlimit:4;stroke-dasharray:none;stroke-opacity:1" />
        <path
           d="m 291.1,299.3 h -6.4 v 8.4"
           id="58,56"
           style="fill:none;stroke:#ffffff;stroke-width:2.69152;stroke-miterlimit:4;stroke-dasharray:none;stroke-opacity:1" />
        <path
           d="m 291.1,299.3 h 6.3 v 8.5"
           id="58,55"
           style="fill:none;stroke:#ffffff;stroke-width:2.69152;stroke-miterlimit:4;stroke-dasharray:none;stroke-opacity:1" />
        <path
           d="m 322.8,298.4 h -8.4 v 2.4"
           id="57,54"
           style="fill:none;stroke:#ffffff;stroke-width:2.69152;stroke-miterlimit:4;stroke-dasharray:none;stroke-opacity:1" />
        <path
           d="m 322.8,298.4 h 8.5 v 6.1"
           id="57,53"
           style="fill:none;stroke:#ffffff;stroke-width:2.69152;stroke-miterlimit:4;stroke-dasharray:none;stroke-opacity:1" />
        <path
           d="m 297.4,307.8 h 4.3 v 1.6"
           id="55,52"
           style="fill:none;stroke:#ffffff;stroke-width:2.69152;stroke-miterlimit:4;stroke-dasharray:none;stroke-opacity:1" />
        <path
           d="m 314.4,300.8 h 4.2 v 1.7"
           id="54,51"
           style="fill:none;stroke:#ffffff;stroke-width:2.69152;stroke-miterlimit:4;stroke-dasharray:none;stroke-opacity:1" />
        <path
           d="m 331.3,304.5 h 4.3 v 2.7"
           id="53,50"
           style="fill:none;stroke:#ffffff;stroke-width:2.69152;stroke-miterlimit:4;stroke-dasharray:none;stroke-opacity:1" />
        <path
           d="m 64.4,275.2 h -2.8 v 35.6"
           id="97,49"
           style="fill:none;stroke:#ffffff;stroke-width:2.69152;stroke-miterlimit:4;stroke-dasharray:none;stroke-opacity:1" />
        <path
           d="m 64.4,275.2 h 2.9 v 35.6"
           id="97,48"
           style="fill:none;stroke:#ffffff;stroke-width:2.69152;stroke-miterlimit:4;stroke-dasharray:none;stroke-opacity:1" />
        <path
           d="m 77.2,289.7 h -4.3 v 21.1"
           id="89,47"
           style="fill:none;stroke:#ffffff;stroke-width:2.69152;stroke-miterlimit:4;stroke-dasharray:none;stroke-opacity:1" />
        <path
           d="m 81.4,301.1 h -2.8 v 9.7"
           id="82,46"
           style="fill:none;stroke:#ffffff;stroke-width:2.69152;stroke-miterlimit:4;stroke-dasharray:none;stroke-opacity:1" />
        <path
           d="m 81.4,301.1 h 2.8 v 9.7"
           id="82,45"
           style="fill:none;stroke:#ffffff;stroke-width:2.69152;stroke-miterlimit:4;stroke-dasharray:none;stroke-opacity:1" />
        <path
           d="m 94.1,298.8 h -4.2 v 12"
           id="88,44"
           style="fill:none;stroke:#ffffff;stroke-width:2.69152;stroke-miterlimit:4;stroke-dasharray:none;stroke-opacity:1" />
        <path
           d="m 98.3,310.1 h -2.8 v 0.7"
           id="81,43"
           style="fill:none;stroke:#ffffff;stroke-width:2.69152;stroke-miterlimit:4;stroke-dasharray:none;stroke-opacity:1" />
        <path
           d="m 98.3,310.1 h 2.9 v 0.7"
           id="81,42"
           style="fill:none;stroke:#ffffff;stroke-width:2.69152;stroke-miterlimit:4;stroke-dasharray:none;stroke-opacity:1" />
        <path
           d="m 112.1,268.2 h -5.3 v 42.6"
           id="87,41"
           style="fill:none;stroke:#ffffff;stroke-width:2.69152;stroke-miterlimit:4;stroke-dasharray:none;stroke-opacity:1" />
        <path
           d="m 117.4,294.3 h -4.9 v 16.5"
           id="80,40"
           style="fill:none;stroke:#ffffff;stroke-width:2.69152;stroke-miterlimit:4;stroke-dasharray:none;stroke-opacity:1" />
        <path
           d="m 122.3,306.6 h -4.2 v 4.2"
           id="75,39"
           style="fill:none;stroke:#ffffff;stroke-width:2.69152;stroke-miterlimit:4;stroke-dasharray:none;stroke-opacity:1" />
        <path
           d="m 126.6,308.9 h -2.8 v 1.9"
           id="68,38"
           style="fill:none;stroke:#ffffff;stroke-width:2.69152;stroke-miterlimit:4;stroke-dasharray:none;stroke-opacity:1" />
        <path
           d="m 126.6,308.9 h 2.8 v 1.9"
           id="68,37"
           style="fill:none;stroke:#ffffff;stroke-width:2.69152;stroke-miterlimit:4;stroke-dasharray:none;stroke-opacity:1" />
        <path
           d="M 137.9,288.3 H 135 v 22.5"
           id="79,36"
           style="fill:none;stroke:#ffffff;stroke-width:2.69152;stroke-miterlimit:4;stroke-dasharray:none;stroke-opacity:1" />
        <path
           d="m 137.9,288.3 h 2.8 v 22.5"
           id="79,35"
           style="fill:none;stroke:#ffffff;stroke-width:2.69152;stroke-miterlimit:4;stroke-dasharray:none;stroke-opacity:1" />
        <path
           d="m 149.2,310.4 h -2.9 v 0.4"
           id="74,34"
           style="fill:none;stroke:#ffffff;stroke-width:2.69152;stroke-miterlimit:4;stroke-dasharray:none;stroke-opacity:1" />
        <path
           d="m 149.2,310.4 h 2.8 v 0.4"
           id="74,33"
           style="fill:none;stroke:#ffffff;stroke-width:2.69152;stroke-miterlimit:4;stroke-dasharray:none;stroke-opacity:1" />
        <path
           d="m 162.6,305.3 h -5 v 5.5"
           id="73,32"
           style="fill:none;stroke:#ffffff;stroke-width:2.69152;stroke-miterlimit:4;stroke-dasharray:none;stroke-opacity:1" />
        <path
           d="m 167.5,310.5 h -4.2 v 0.3"
           id="67,31"
           style="fill:none;stroke:#ffffff;stroke-width:2.69152;stroke-miterlimit:4;stroke-dasharray:none;stroke-opacity:1" />
        <path
           d="m 171.8,310.8 h -2.9 v 0"
           id="62,30"
           style="fill:none;stroke:#ffffff;stroke-width:2.69152;stroke-miterlimit:4;stroke-dasharray:none;stroke-opacity:1" />
        <path
           d="m 171.8,310.8 h 2.8 v 0"
           id="62,29"
           style="fill:none;stroke:#ffffff;stroke-width:2.69152;stroke-miterlimit:4;stroke-dasharray:none;stroke-opacity:1" />
        <path
           d="m 184.5,192 h -4.3 v 118.8"
           id="91,28"
           style="fill:none;stroke:#ffffff;stroke-width:2.69152;stroke-miterlimit:4;stroke-dasharray:none;stroke-opacity:1" />
        <path
           d="m 188.7,298.2 h -2.8 v 12.6"
           id="85,27"
           style="fill:none;stroke:#ffffff;stroke-width:2.69152;stroke-miterlimit:4;stroke-dasharray:none;stroke-opacity:1" />
        <path
           d="m 188.7,298.2 h 2.8 v 12.6"
           id="85,26"
           style="fill:none;stroke:#ffffff;stroke-width:2.69152;stroke-miterlimit:4;stroke-dasharray:none;stroke-opacity:1" />
        <path
           d="m 200,289.9 h -2.8 v 20.9"
           id="84,25"
           style="fill:none;stroke:#ffffff;stroke-width:2.69152;stroke-miterlimit:4;stroke-dasharray:none;stroke-opacity:1" />
        <path
           d="m 200,289.9 h 2.8 v 20.9"
           id="84,24"
           style="fill:none;stroke:#ffffff;stroke-width:2.69152;stroke-miterlimit:4;stroke-dasharray:none;stroke-opacity:1" />
        <path
           d="m 211.3,302.4 h -2.8 v 8.4"
           id="72,23"
           style="fill:none;stroke:#ffffff;stroke-width:2.69152;stroke-miterlimit:4;stroke-dasharray:none;stroke-opacity:1" />
        <path
           d="m 211.3,302.4 h 2.8 v 8.4"
           id="72,22"
           style="fill:none;stroke:#ffffff;stroke-width:2.69152;stroke-miterlimit:4;stroke-dasharray:none;stroke-opacity:1" />
        <path
           d="m 224,293.4 h -4.2 v 17.4"
           id="71,21"
           style="fill:none;stroke:#ffffff;stroke-width:2.69152;stroke-miterlimit:4;stroke-dasharray:none;stroke-opacity:1" />
        <path
           d="m 228.2,295.4 h -2.8 v 15.4"
           id="66,20"
           style="fill:none;stroke:#ffffff;stroke-width:2.69152;stroke-miterlimit:4;stroke-dasharray:none;stroke-opacity:1" />
        <path
           d="m 228.2,295.4 h 2.9 v 15.4"
           id="66,19"
           style="fill:none;stroke:#ffffff;stroke-width:2.69152;stroke-miterlimit:4;stroke-dasharray:none;stroke-opacity:1" />
        <path
           d="m 240.9,285.3 h -4.2 v 25.5"
           id="70,18"
           style="fill:none;stroke:#ffffff;stroke-width:2.69152;stroke-miterlimit:4;stroke-dasharray:none;stroke-opacity:1" />
        <path
           d="m 245.2,309.8 h -2.8 v 1"
           id="65,17"
           style="fill:none;stroke:#ffffff;stroke-width:2.69152;stroke-miterlimit:4;stroke-dasharray:none;stroke-opacity:1" />
        <path
           d="m 245.2,309.8 h 2.8 v 1"
           id="65,16"
           style="fill:none;stroke:#ffffff;stroke-width:2.69152;stroke-miterlimit:4;stroke-dasharray:none;stroke-opacity:1" />
        <path
           d="m 256.5,310 h -2.8 v 0.8"
           id="64,15"
           style="fill:none;stroke:#ffffff;stroke-width:2.69152;stroke-miterlimit:4;stroke-dasharray:none;stroke-opacity:1" />
        <path
           d="m 256.5,310 h 2.8 v 0.8"
           id="64,14"
           style="fill:none;stroke:#ffffff;stroke-width:2.69152;stroke-miterlimit:4;stroke-dasharray:none;stroke-opacity:1" />
        <path
           d="M 277.6,277.7 H 265 v 33.1"
           id="63,13"
           style="fill:none;stroke:#ffffff;stroke-width:2.69152;stroke-miterlimit:4;stroke-dasharray:none;stroke-opacity:1" />
        <path
           d="m 273.4,302.7 h -2.8 v 8.1"
           id="60,12"
           style="fill:none;stroke:#ffffff;stroke-width:2.69152;stroke-miterlimit:4;stroke-dasharray:none;stroke-opacity:1" />
        <path
           d="m 273.4,302.7 h 2.8 v 8.1"
           id="60,11"
           style="fill:none;stroke:#ffffff;stroke-width:2.69152;stroke-miterlimit:4;stroke-dasharray:none;stroke-opacity:1" />
        <path
           d="m 284.7,307.7 h -2.8 v 3.1"
           id="56,10"
           style="fill:none;stroke:#ffffff;stroke-width:2.69152;stroke-miterlimit:4;stroke-dasharray:none;stroke-opacity:1" />
        <path
           d="m 284.7,307.7 h 2.8 v 3.1"
           id="56,9"
           style="fill:none;stroke:#ffffff;stroke-width:2.69152;stroke-miterlimit:4;stroke-dasharray:none;stroke-opacity:1" />
        <path
           d="m 297.4,307.8 h -4.2 v 3"
           id="55,8"
           style="fill:none;stroke:#ffffff;stroke-width:2.69152;stroke-miterlimit:4;stroke-dasharray:none;stroke-opacity:1" />
        <path
           d="m 301.7,309.4 h -2.9 v 1.4"
           id="52,7"
           style="fill:none;stroke:#ffffff;stroke-width:2.69152;stroke-miterlimit:4;stroke-dasharray:none;stroke-opacity:1" />
        <path
           d="m 301.7,309.4 h 2.8 v 1.4"
           id="52,6"
           style="fill:none;stroke:#ffffff;stroke-width:2.69152;stroke-miterlimit:4;stroke-dasharray:none;stroke-opacity:1" />
        <path
           d="m 314.4,300.8 h -4.3 v 10"
           id="54,5"
           style="fill:none;stroke:#ffffff;stroke-width:2.69152;stroke-miterlimit:4;stroke-dasharray:none;stroke-opacity:1" />
        <path
           d="m 318.6,302.5 h -2.8 v 8.3"
           id="51,4"
           style="fill:none;stroke:#ffffff;stroke-width:2.69152;stroke-miterlimit:4;stroke-dasharray:none;stroke-opacity:1" />
        <path
           d="m 318.6,302.5 h 2.8 v 8.3"
           id="51,3"
           style="fill:none;stroke:#ffffff;stroke-width:2.69152;stroke-miterlimit:4;stroke-dasharray:none;stroke-opacity:1" />
        <path
           d="m 331.3,304.5 h -4.2 v 6.3"
           id="53,2"
           style="fill:none;stroke:#ffffff;stroke-width:2.69152;stroke-miterlimit:4;stroke-dasharray:none;stroke-opacity:1" />
        <path
           d="m 335.6,307.2 h -2.9 v 3.6"
           id="50,1"
           style="fill:none;stroke:#ffffff;stroke-width:2.69152;stroke-miterlimit:4;stroke-dasharray:none;stroke-opacity:1" />
        <path
           d="m 335.6,307.2 h 2.8 v 3.6"
           id="50,0"
           style="fill:none;stroke:#ffffff;stroke-width:2.69152;stroke-miterlimit:4;stroke-dasharray:none;stroke-opacity:1" />
      </g>
    </g>
    <g
       class="toytree-TipLabels"
       style="font-weight:normal;font-size:11px;font-family:helvetica;white-space:pre;fill:#232323;fill-opacity:1;stroke:none;stroke-width:1;stroke-opacity:1"
       id="g4290"
       transform="matrix(0.26458333,0,0,0.26458333,149.64833,138.93271)" />
    <rect
       style="fill:#ff00ff;fill-opacity:0.74902;stroke:#ff00ff;stroke-width:0.377567;stroke-linecap:square;stroke-miterlimit:4;stroke-dasharray:none;stroke-dashoffset:0;stroke-opacity:1"
       id="rect5611"
       width="2.2374363"
       height="20.136927"
       x="89.524979"
       y="4.1904426" />
  </g>
</svg>
